<mxfile host="app.diagrams.net" modified="2023-10-20T07:26:18.868Z" agent="Mozilla/5.0 (Windows NT 10.0; Win64; x64) AppleWebKit/537.36 (KHTML, like Gecko) Chrome/116.0.0.0 Whale/3.22.205.26 Safari/537.36" etag="NjUEFms64fe7M25iOmkO" version="22.0.5" type="device">
  <diagram name="페이지-1" id="163NBYBsBRLgtJDL604t">
    <mxGraphModel dx="8228" dy="5443" grid="1" gridSize="10" guides="1" tooltips="1" connect="1" arrows="1" fold="1" page="1" pageScale="1" pageWidth="3300" pageHeight="2339" math="0" shadow="0">
      <root>
        <mxCell id="0" />
        <mxCell id="1" parent="0" />
        <mxCell id="0IM65uLI26XqDAjvXvkj-6" value="로그인 페이지" style="strokeWidth=2;html=1;shape=mxgraph.flowchart.start_1;whiteSpace=wrap;" parent="1" vertex="1">
          <mxGeometry x="-6420" y="-4620" width="120" height="40" as="geometry" />
        </mxCell>
        <mxCell id="0IM65uLI26XqDAjvXvkj-41" value="NO" style="edgeStyle=orthogonalEdgeStyle;rounded=0;orthogonalLoop=1;jettySize=auto;html=1;exitX=0;exitY=0.5;exitDx=0;exitDy=0;exitPerimeter=0;entryX=1;entryY=0.5;entryDx=0;entryDy=0;" parent="1" source="0IM65uLI26XqDAjvXvkj-11" target="0IM65uLI26XqDAjvXvkj-43" edge="1">
          <mxGeometry relative="1" as="geometry">
            <mxPoint x="-6490" y="-4075" as="targetPoint" />
          </mxGeometry>
        </mxCell>
        <mxCell id="0IM65uLI26XqDAjvXvkj-11" value="일치" style="strokeWidth=2;html=1;shape=mxgraph.flowchart.decision;whiteSpace=wrap;" parent="1" vertex="1">
          <mxGeometry x="-6420" y="-4100" width="120" height="50" as="geometry" />
        </mxCell>
        <mxCell id="0IM65uLI26XqDAjvXvkj-38" value="data 비교" style="rounded=1;whiteSpace=wrap;html=1;absoluteArcSize=1;arcSize=14;strokeWidth=2;" parent="1" vertex="1">
          <mxGeometry x="-6420" y="-4160" width="120" height="40" as="geometry" />
        </mxCell>
        <mxCell id="0IM65uLI26XqDAjvXvkj-40" style="edgeStyle=orthogonalEdgeStyle;rounded=0;orthogonalLoop=1;jettySize=auto;html=1;exitX=0.5;exitY=1;exitDx=0;exitDy=0;entryX=0.5;entryY=0;entryDx=0;entryDy=0;entryPerimeter=0;" parent="1" source="0IM65uLI26XqDAjvXvkj-38" target="0IM65uLI26XqDAjvXvkj-11" edge="1">
          <mxGeometry relative="1" as="geometry" />
        </mxCell>
        <mxCell id="Jq7RuhvPVXbI7fcz3Nos-3" style="edgeStyle=orthogonalEdgeStyle;rounded=0;orthogonalLoop=1;jettySize=auto;html=1;exitX=0.5;exitY=0;exitDx=0;exitDy=0;entryX=0;entryY=0.5;entryDx=0;entryDy=0;" parent="1" source="0IM65uLI26XqDAjvXvkj-43" target="0IM65uLI26XqDAjvXvkj-47" edge="1">
          <mxGeometry relative="1" as="geometry" />
        </mxCell>
        <mxCell id="0IM65uLI26XqDAjvXvkj-43" value="data 불일치 메세지" style="rounded=1;whiteSpace=wrap;html=1;absoluteArcSize=1;arcSize=14;strokeWidth=2;" parent="1" vertex="1">
          <mxGeometry x="-6590" y="-4100" width="120" height="45" as="geometry" />
        </mxCell>
        <mxCell id="Jq7RuhvPVXbI7fcz3Nos-6" style="edgeStyle=orthogonalEdgeStyle;rounded=0;orthogonalLoop=1;jettySize=auto;html=1;exitX=0.5;exitY=1;exitDx=0;exitDy=0;exitPerimeter=0;" parent="1" source="0IM65uLI26XqDAjvXvkj-45" target="0IM65uLI26XqDAjvXvkj-64" edge="1">
          <mxGeometry relative="1" as="geometry" />
        </mxCell>
        <mxCell id="0IM65uLI26XqDAjvXvkj-45" value="로그인 성공" style="strokeWidth=2;html=1;shape=mxgraph.flowchart.terminator;whiteSpace=wrap;" parent="1" vertex="1">
          <mxGeometry x="-6420" y="-4010" width="120" height="40" as="geometry" />
        </mxCell>
        <mxCell id="0IM65uLI26XqDAjvXvkj-46" value="id/pw제출" style="rounded=1;whiteSpace=wrap;html=1;absoluteArcSize=1;arcSize=14;strokeWidth=2;" parent="1" vertex="1">
          <mxGeometry x="-6420" y="-4340" width="120" height="40" as="geometry" />
        </mxCell>
        <mxCell id="Jq7RuhvPVXbI7fcz3Nos-148" style="edgeStyle=orthogonalEdgeStyle;rounded=0;sketch=1;hachureGap=4;jiggle=2;curveFitting=1;orthogonalLoop=1;jettySize=auto;html=1;exitX=0.5;exitY=1;exitDx=0;exitDy=0;entryX=0.5;entryY=0;entryDx=0;entryDy=0;fontFamily=Architects Daughter;fontSource=https%3A%2F%2Ffonts.googleapis.com%2Fcss%3Ffamily%3DArchitects%2BDaughter;fontSize=16;" parent="1" source="0IM65uLI26XqDAjvXvkj-47" target="0IM65uLI26XqDAjvXvkj-46" edge="1">
          <mxGeometry relative="1" as="geometry" />
        </mxCell>
        <mxCell id="0IM65uLI26XqDAjvXvkj-47" value="로그인" style="rounded=1;whiteSpace=wrap;html=1;absoluteArcSize=1;arcSize=14;strokeWidth=2;" parent="1" vertex="1">
          <mxGeometry x="-6420" y="-4430" width="120" height="40" as="geometry" />
        </mxCell>
        <mxCell id="0IM65uLI26XqDAjvXvkj-50" value="회원" style="strokeWidth=2;html=1;shape=mxgraph.flowchart.decision;whiteSpace=wrap;" parent="1" vertex="1">
          <mxGeometry x="-6420" y="-4540" width="120" height="50" as="geometry" />
        </mxCell>
        <mxCell id="0IM65uLI26XqDAjvXvkj-62" value="YES" style="edgeStyle=orthogonalEdgeStyle;rounded=0;orthogonalLoop=1;jettySize=auto;html=1;exitX=0.5;exitY=1;exitDx=0;exitDy=0;exitPerimeter=0;entryX=0.5;entryY=0;entryDx=0;entryDy=0;entryPerimeter=0;" parent="1" source="0IM65uLI26XqDAjvXvkj-11" target="0IM65uLI26XqDAjvXvkj-45" edge="1">
          <mxGeometry relative="1" as="geometry" />
        </mxCell>
        <mxCell id="0IM65uLI26XqDAjvXvkj-64" value="메인 페이지" style="rounded=1;whiteSpace=wrap;html=1;absoluteArcSize=1;arcSize=14;strokeWidth=2;" parent="1" vertex="1">
          <mxGeometry x="-6420" y="-3910" width="120" height="40" as="geometry" />
        </mxCell>
        <mxCell id="0IM65uLI26XqDAjvXvkj-69" style="edgeStyle=orthogonalEdgeStyle;rounded=0;orthogonalLoop=1;jettySize=auto;html=1;exitX=0.5;exitY=1;exitDx=0;exitDy=0;exitPerimeter=0;entryX=0.5;entryY=0;entryDx=0;entryDy=0;" parent="1" source="0IM65uLI26XqDAjvXvkj-67" target="0IM65uLI26XqDAjvXvkj-38" edge="1">
          <mxGeometry relative="1" as="geometry" />
        </mxCell>
        <mxCell id="0IM65uLI26XqDAjvXvkj-67" value="DB member" style="shape=cylinder3;whiteSpace=wrap;html=1;boundedLbl=1;backgroundOutline=1;size=15;" parent="1" vertex="1">
          <mxGeometry x="-6420" y="-4230" width="120" height="50" as="geometry" />
        </mxCell>
        <mxCell id="6EeKpE1097gxVIoTehE0-15" style="edgeStyle=orthogonalEdgeStyle;rounded=0;orthogonalLoop=1;jettySize=auto;html=1;entryX=0.5;entryY=0;entryDx=0;entryDy=0;" parent="1" source="6EeKpE1097gxVIoTehE0-3" target="6EeKpE1097gxVIoTehE0-11" edge="1">
          <mxGeometry relative="1" as="geometry" />
        </mxCell>
        <mxCell id="6EeKpE1097gxVIoTehE0-69" style="edgeStyle=orthogonalEdgeStyle;rounded=0;orthogonalLoop=1;jettySize=auto;html=1;exitX=1;exitY=0.5;exitDx=0;exitDy=0;exitPerimeter=0;entryX=0.5;entryY=0;entryDx=0;entryDy=0;" parent="1" source="6EeKpE1097gxVIoTehE0-3" target="6EeKpE1097gxVIoTehE0-7" edge="1">
          <mxGeometry relative="1" as="geometry" />
        </mxCell>
        <mxCell id="6EeKpE1097gxVIoTehE0-3" value="메인페이지" style="strokeWidth=2;html=1;shape=mxgraph.flowchart.start_1;whiteSpace=wrap;" parent="1" vertex="1">
          <mxGeometry x="-4920" y="-3800" width="200" height="60" as="geometry" />
        </mxCell>
        <mxCell id="6EeKpE1097gxVIoTehE0-29" style="edgeStyle=orthogonalEdgeStyle;rounded=0;orthogonalLoop=1;jettySize=auto;html=1;exitX=0.5;exitY=1;exitDx=0;exitDy=0;exitPerimeter=0;entryX=0.5;entryY=0;entryDx=0;entryDy=0;" parent="1" source="6EeKpE1097gxVIoTehE0-4" target="6EeKpE1097gxVIoTehE0-6" edge="1">
          <mxGeometry relative="1" as="geometry" />
        </mxCell>
        <mxCell id="6EeKpE1097gxVIoTehE0-35" style="edgeStyle=orthogonalEdgeStyle;rounded=0;orthogonalLoop=1;jettySize=auto;html=1;exitX=0;exitY=0.5;exitDx=0;exitDy=0;exitPerimeter=0;entryX=1;entryY=0.5;entryDx=0;entryDy=0;" parent="1" source="6EeKpE1097gxVIoTehE0-4" target="6EeKpE1097gxVIoTehE0-34" edge="1">
          <mxGeometry relative="1" as="geometry" />
        </mxCell>
        <mxCell id="6EeKpE1097gxVIoTehE0-44" style="edgeStyle=orthogonalEdgeStyle;rounded=0;orthogonalLoop=1;jettySize=auto;html=1;exitX=1;exitY=0.5;exitDx=0;exitDy=0;exitPerimeter=0;entryX=0;entryY=0.5;entryDx=0;entryDy=0;" parent="1" source="6EeKpE1097gxVIoTehE0-4" target="6EeKpE1097gxVIoTehE0-12" edge="1">
          <mxGeometry relative="1" as="geometry" />
        </mxCell>
        <mxCell id="6EeKpE1097gxVIoTehE0-45" style="edgeStyle=orthogonalEdgeStyle;rounded=0;orthogonalLoop=1;jettySize=auto;html=1;exitX=1;exitY=0.5;exitDx=0;exitDy=0;exitPerimeter=0;entryX=0;entryY=0.5;entryDx=0;entryDy=0;" parent="1" source="6EeKpE1097gxVIoTehE0-4" target="6EeKpE1097gxVIoTehE0-13" edge="1">
          <mxGeometry relative="1" as="geometry" />
        </mxCell>
        <mxCell id="6EeKpE1097gxVIoTehE0-46" style="edgeStyle=orthogonalEdgeStyle;rounded=0;orthogonalLoop=1;jettySize=auto;html=1;exitX=1;exitY=0.5;exitDx=0;exitDy=0;exitPerimeter=0;entryX=0;entryY=0.5;entryDx=0;entryDy=0;" parent="1" source="6EeKpE1097gxVIoTehE0-4" target="6EeKpE1097gxVIoTehE0-14" edge="1">
          <mxGeometry relative="1" as="geometry" />
        </mxCell>
        <mxCell id="6EeKpE1097gxVIoTehE0-4" value="로그인" style="strokeWidth=2;html=1;shape=mxgraph.flowchart.decision;whiteSpace=wrap;" parent="1" vertex="1">
          <mxGeometry x="-4920" y="-3590" width="200" height="60" as="geometry" />
        </mxCell>
        <mxCell id="6EeKpE1097gxVIoTehE0-28" value="" style="edgeStyle=orthogonalEdgeStyle;rounded=0;orthogonalLoop=1;jettySize=auto;html=1;" parent="1" source="6EeKpE1097gxVIoTehE0-6" target="6EeKpE1097gxVIoTehE0-27" edge="1">
          <mxGeometry relative="1" as="geometry" />
        </mxCell>
        <mxCell id="6EeKpE1097gxVIoTehE0-6" value="설문조사" style="rounded=1;whiteSpace=wrap;html=1;absoluteArcSize=1;arcSize=14;strokeWidth=2;" parent="1" vertex="1">
          <mxGeometry x="-4920" y="-3400" width="200" height="60" as="geometry" />
        </mxCell>
        <mxCell id="6EeKpE1097gxVIoTehE0-62" style="edgeStyle=orthogonalEdgeStyle;rounded=0;orthogonalLoop=1;jettySize=auto;html=1;exitX=0.5;exitY=1;exitDx=0;exitDy=0;" parent="1" source="6EeKpE1097gxVIoTehE0-7" target="6EeKpE1097gxVIoTehE0-57" edge="1">
          <mxGeometry relative="1" as="geometry" />
        </mxCell>
        <mxCell id="LNQYTLU4QdbcK7NXjzKx-2" style="edgeStyle=orthogonalEdgeStyle;rounded=0;orthogonalLoop=1;jettySize=auto;html=1;exitX=0;exitY=0.5;exitDx=0;exitDy=0;entryX=1;entryY=0.5;entryDx=0;entryDy=0;" parent="1" source="6EeKpE1097gxVIoTehE0-7" target="LNQYTLU4QdbcK7NXjzKx-1" edge="1">
          <mxGeometry relative="1" as="geometry" />
        </mxCell>
        <mxCell id="6EeKpE1097gxVIoTehE0-7" value="상품페이지" style="rounded=1;whiteSpace=wrap;html=1;absoluteArcSize=1;arcSize=14;strokeWidth=2;" parent="1" vertex="1">
          <mxGeometry x="-4240" y="-3640" width="200" height="60" as="geometry" />
        </mxCell>
        <mxCell id="6EeKpE1097gxVIoTehE0-109" style="edgeStyle=orthogonalEdgeStyle;rounded=0;orthogonalLoop=1;jettySize=auto;html=1;exitX=0.685;exitY=1.039;exitDx=0;exitDy=0;exitPerimeter=0;entryX=0;entryY=0.5;entryDx=0;entryDy=0;" parent="1" source="6EeKpE1097gxVIoTehE0-9" target="6EeKpE1097gxVIoTehE0-34" edge="1">
          <mxGeometry relative="1" as="geometry">
            <Array as="points">
              <mxPoint x="-5303" y="-3475" />
            </Array>
          </mxGeometry>
        </mxCell>
        <mxCell id="Jq7RuhvPVXbI7fcz3Nos-101" style="edgeStyle=orthogonalEdgeStyle;rounded=0;orthogonalLoop=1;jettySize=auto;html=1;exitX=0.5;exitY=1;exitDx=0;exitDy=0;exitPerimeter=0;" parent="1" source="6EeKpE1097gxVIoTehE0-9" edge="1">
          <mxGeometry relative="1" as="geometry">
            <mxPoint x="-5340.142857142857" y="-2830" as="targetPoint" />
          </mxGeometry>
        </mxCell>
        <mxCell id="6EeKpE1097gxVIoTehE0-9" value="DB member" style="strokeWidth=2;html=1;shape=mxgraph.flowchart.database;whiteSpace=wrap;" parent="1" vertex="1">
          <mxGeometry x="-5440" y="-3700" width="200" height="60" as="geometry" />
        </mxCell>
        <mxCell id="6EeKpE1097gxVIoTehE0-11" value="회원가입" style="rounded=1;whiteSpace=wrap;html=1;absoluteArcSize=1;arcSize=14;strokeWidth=2;" parent="1" vertex="1">
          <mxGeometry x="-5150" y="-3700" width="200" height="60" as="geometry" />
        </mxCell>
        <mxCell id="6EeKpE1097gxVIoTehE0-12" value="고객센터" style="rounded=1;whiteSpace=wrap;html=1;absoluteArcSize=1;arcSize=14;strokeWidth=2;" parent="1" vertex="1">
          <mxGeometry x="-4570" y="-3150" width="200" height="60" as="geometry" />
        </mxCell>
        <mxCell id="6EeKpE1097gxVIoTehE0-13" value="장바구니" style="rounded=1;whiteSpace=wrap;html=1;absoluteArcSize=1;arcSize=14;strokeWidth=2;" parent="1" vertex="1">
          <mxGeometry x="-4570" y="-3040" width="200" height="60" as="geometry" />
        </mxCell>
        <mxCell id="6EeKpE1097gxVIoTehE0-95" style="edgeStyle=orthogonalEdgeStyle;rounded=0;orthogonalLoop=1;jettySize=auto;html=1;exitX=0.5;exitY=1;exitDx=0;exitDy=0;entryX=0;entryY=0.5;entryDx=0;entryDy=0;" parent="1" source="6EeKpE1097gxVIoTehE0-14" target="6EeKpE1097gxVIoTehE0-91" edge="1">
          <mxGeometry relative="1" as="geometry" />
        </mxCell>
        <mxCell id="6EeKpE1097gxVIoTehE0-96" style="edgeStyle=orthogonalEdgeStyle;rounded=0;orthogonalLoop=1;jettySize=auto;html=1;exitX=0.5;exitY=1;exitDx=0;exitDy=0;entryX=0;entryY=0.5;entryDx=0;entryDy=0;" parent="1" source="6EeKpE1097gxVIoTehE0-14" target="6EeKpE1097gxVIoTehE0-88" edge="1">
          <mxGeometry relative="1" as="geometry" />
        </mxCell>
        <mxCell id="6EeKpE1097gxVIoTehE0-97" style="edgeStyle=orthogonalEdgeStyle;rounded=0;orthogonalLoop=1;jettySize=auto;html=1;exitX=0.5;exitY=1;exitDx=0;exitDy=0;entryX=0;entryY=0.5;entryDx=0;entryDy=0;" parent="1" source="6EeKpE1097gxVIoTehE0-14" target="6EeKpE1097gxVIoTehE0-92" edge="1">
          <mxGeometry relative="1" as="geometry" />
        </mxCell>
        <mxCell id="6EeKpE1097gxVIoTehE0-98" style="edgeStyle=orthogonalEdgeStyle;rounded=0;orthogonalLoop=1;jettySize=auto;html=1;exitX=0.5;exitY=1;exitDx=0;exitDy=0;entryX=0;entryY=0.5;entryDx=0;entryDy=0;" parent="1" source="6EeKpE1097gxVIoTehE0-14" target="6EeKpE1097gxVIoTehE0-93" edge="1">
          <mxGeometry relative="1" as="geometry" />
        </mxCell>
        <mxCell id="6EeKpE1097gxVIoTehE0-99" style="edgeStyle=orthogonalEdgeStyle;rounded=0;orthogonalLoop=1;jettySize=auto;html=1;exitX=0.5;exitY=1;exitDx=0;exitDy=0;entryX=0;entryY=0.5;entryDx=0;entryDy=0;" parent="1" source="6EeKpE1097gxVIoTehE0-14" target="6EeKpE1097gxVIoTehE0-86" edge="1">
          <mxGeometry relative="1" as="geometry" />
        </mxCell>
        <mxCell id="6EeKpE1097gxVIoTehE0-100" style="edgeStyle=orthogonalEdgeStyle;rounded=0;orthogonalLoop=1;jettySize=auto;html=1;exitX=0.5;exitY=1;exitDx=0;exitDy=0;entryX=0;entryY=0.5;entryDx=0;entryDy=0;" parent="1" source="6EeKpE1097gxVIoTehE0-14" target="6EeKpE1097gxVIoTehE0-85" edge="1">
          <mxGeometry relative="1" as="geometry" />
        </mxCell>
        <mxCell id="6EeKpE1097gxVIoTehE0-14" value="마이페이지" style="rounded=1;whiteSpace=wrap;html=1;absoluteArcSize=1;arcSize=14;strokeWidth=2;" parent="1" vertex="1">
          <mxGeometry x="-4570" y="-2930" width="200" height="60" as="geometry" />
        </mxCell>
        <mxCell id="6EeKpE1097gxVIoTehE0-16" style="edgeStyle=none;rounded=0;orthogonalLoop=1;jettySize=auto;html=1;exitX=0.5;exitY=1;exitDx=0;exitDy=0;exitPerimeter=0;entryX=0.5;entryY=0;entryDx=0;entryDy=0;entryPerimeter=0;" parent="1" source="6EeKpE1097gxVIoTehE0-3" target="6EeKpE1097gxVIoTehE0-4" edge="1">
          <mxGeometry relative="1" as="geometry" />
        </mxCell>
        <mxCell id="6EeKpE1097gxVIoTehE0-17" style="edgeStyle=orthogonalEdgeStyle;rounded=0;orthogonalLoop=1;jettySize=auto;html=1;exitX=0.5;exitY=1;exitDx=0;exitDy=0;entryX=0;entryY=0.5;entryDx=0;entryDy=0;entryPerimeter=0;" parent="1" source="6EeKpE1097gxVIoTehE0-11" target="6EeKpE1097gxVIoTehE0-4" edge="1">
          <mxGeometry relative="1" as="geometry" />
        </mxCell>
        <mxCell id="6EeKpE1097gxVIoTehE0-24" style="edgeStyle=orthogonalEdgeStyle;rounded=0;orthogonalLoop=1;jettySize=auto;html=1;exitX=0;exitY=0.5;exitDx=0;exitDy=0;entryX=1;entryY=0.5;entryDx=0;entryDy=0;entryPerimeter=0;" parent="1" source="6EeKpE1097gxVIoTehE0-11" target="6EeKpE1097gxVIoTehE0-9" edge="1">
          <mxGeometry relative="1" as="geometry" />
        </mxCell>
        <mxCell id="6EeKpE1097gxVIoTehE0-58" style="edgeStyle=orthogonalEdgeStyle;rounded=0;orthogonalLoop=1;jettySize=auto;html=1;exitX=0.5;exitY=1;exitDx=0;exitDy=0;exitPerimeter=0;entryX=0.5;entryY=0;entryDx=0;entryDy=0;" parent="1" source="6EeKpE1097gxVIoTehE0-25" target="6EeKpE1097gxVIoTehE0-40" edge="1">
          <mxGeometry relative="1" as="geometry" />
        </mxCell>
        <mxCell id="6EeKpE1097gxVIoTehE0-25" value="관리자페이지" style="strokeWidth=2;html=1;shape=mxgraph.flowchart.start_1;whiteSpace=wrap;" parent="1" vertex="1">
          <mxGeometry x="-3630" y="-3800" width="200" height="60" as="geometry" />
        </mxCell>
        <mxCell id="6EeKpE1097gxVIoTehE0-104" style="edgeStyle=orthogonalEdgeStyle;rounded=0;orthogonalLoop=1;jettySize=auto;html=1;exitX=1;exitY=1;exitDx=0;exitDy=0;" parent="1" source="6EeKpE1097gxVIoTehE0-27" edge="1">
          <mxGeometry relative="1" as="geometry">
            <mxPoint x="-4719.666666666666" y="-3199.333333333333" as="targetPoint" />
          </mxGeometry>
        </mxCell>
        <mxCell id="6EeKpE1097gxVIoTehE0-112" style="edgeStyle=orthogonalEdgeStyle;rounded=0;orthogonalLoop=1;jettySize=auto;html=1;exitX=1;exitY=1;exitDx=0;exitDy=0;entryX=0;entryY=0;entryDx=0;entryDy=0;" parent="1" source="6EeKpE1097gxVIoTehE0-27" target="6EeKpE1097gxVIoTehE0-86" edge="1">
          <mxGeometry relative="1" as="geometry">
            <Array as="points">
              <mxPoint x="-4720" y="-3230" />
              <mxPoint x="-4690" y="-3230" />
              <mxPoint x="-4690" y="-2840" />
              <mxPoint x="-4430" y="-2840" />
            </Array>
          </mxGeometry>
        </mxCell>
        <mxCell id="6EeKpE1097gxVIoTehE0-27" value="설문결과" style="rounded=1;whiteSpace=wrap;html=1;absoluteArcSize=1;arcSize=14;strokeWidth=2;" parent="1" vertex="1">
          <mxGeometry x="-4920" y="-3260" width="200" height="60" as="geometry" />
        </mxCell>
        <mxCell id="6EeKpE1097gxVIoTehE0-107" style="edgeStyle=orthogonalEdgeStyle;rounded=0;orthogonalLoop=1;jettySize=auto;html=1;exitX=0.5;exitY=1;exitDx=0;exitDy=0;entryX=0.5;entryY=0;entryDx=0;entryDy=0;" parent="1" source="6EeKpE1097gxVIoTehE0-34" target="6EeKpE1097gxVIoTehE0-106" edge="1">
          <mxGeometry relative="1" as="geometry" />
        </mxCell>
        <mxCell id="6EeKpE1097gxVIoTehE0-34" value="data비교" style="rounded=1;whiteSpace=wrap;html=1;absoluteArcSize=1;arcSize=14;strokeWidth=2;" parent="1" vertex="1">
          <mxGeometry x="-5220" y="-3505" width="200" height="60" as="geometry" />
        </mxCell>
        <mxCell id="6EeKpE1097gxVIoTehE0-40" value="상품등록" style="rounded=1;whiteSpace=wrap;html=1;absoluteArcSize=1;arcSize=14;strokeWidth=2;" parent="1" vertex="1">
          <mxGeometry x="-3630" y="-3670" width="200" height="60" as="geometry" />
        </mxCell>
        <mxCell id="6EeKpE1097gxVIoTehE0-71" style="edgeStyle=orthogonalEdgeStyle;rounded=0;orthogonalLoop=1;jettySize=auto;html=1;exitX=0;exitY=0.5;exitDx=0;exitDy=0;exitPerimeter=0;entryX=0.5;entryY=1;entryDx=0;entryDy=0;" parent="1" source="6EeKpE1097gxVIoTehE0-41" edge="1">
          <mxGeometry relative="1" as="geometry">
            <mxPoint x="-3929.999999999999" y="-3550.0000000000005" as="targetPoint" />
          </mxGeometry>
        </mxCell>
        <mxCell id="6EeKpE1097gxVIoTehE0-41" value="DB product" style="strokeWidth=2;html=1;shape=mxgraph.flowchart.database;whiteSpace=wrap;" parent="1" vertex="1">
          <mxGeometry x="-3830" y="-3530" width="200" height="60" as="geometry" />
        </mxCell>
        <mxCell id="6EeKpE1097gxVIoTehE0-53" value="상품추천" style="strokeWidth=2;html=1;shape=mxgraph.flowchart.terminator;whiteSpace=wrap;" parent="1" vertex="1">
          <mxGeometry x="-4920" y="-3130" width="200" height="60" as="geometry" />
        </mxCell>
        <mxCell id="6EeKpE1097gxVIoTehE0-55" style="edgeStyle=orthogonalEdgeStyle;rounded=0;orthogonalLoop=1;jettySize=auto;html=1;exitX=0.5;exitY=1;exitDx=0;exitDy=0;entryX=0.5;entryY=0;entryDx=0;entryDy=0;entryPerimeter=0;" parent="1" source="6EeKpE1097gxVIoTehE0-27" target="6EeKpE1097gxVIoTehE0-53" edge="1">
          <mxGeometry relative="1" as="geometry" />
        </mxCell>
        <mxCell id="6EeKpE1097gxVIoTehE0-63" style="edgeStyle=orthogonalEdgeStyle;rounded=0;orthogonalLoop=1;jettySize=auto;html=1;exitX=0.5;exitY=1;exitDx=0;exitDy=0;entryX=1;entryY=0.5;entryDx=0;entryDy=0;" parent="1" source="6EeKpE1097gxVIoTehE0-57" target="6EeKpE1097gxVIoTehE0-13" edge="1">
          <mxGeometry relative="1" as="geometry" />
        </mxCell>
        <mxCell id="LNQYTLU4QdbcK7NXjzKx-3" style="edgeStyle=orthogonalEdgeStyle;rounded=0;orthogonalLoop=1;jettySize=auto;html=1;exitX=0;exitY=0.5;exitDx=0;exitDy=0;entryX=1;entryY=0.5;entryDx=0;entryDy=0;" parent="1" source="6EeKpE1097gxVIoTehE0-57" target="LNQYTLU4QdbcK7NXjzKx-1" edge="1">
          <mxGeometry relative="1" as="geometry" />
        </mxCell>
        <mxCell id="6EeKpE1097gxVIoTehE0-57" value="상품상세페이지" style="rounded=1;whiteSpace=wrap;html=1;absoluteArcSize=1;arcSize=14;strokeWidth=2;" parent="1" vertex="1">
          <mxGeometry x="-4240" y="-3500" width="200" height="60" as="geometry" />
        </mxCell>
        <mxCell id="6EeKpE1097gxVIoTehE0-59" style="edgeStyle=orthogonalEdgeStyle;rounded=0;orthogonalLoop=1;jettySize=auto;html=1;exitX=0.5;exitY=1;exitDx=0;exitDy=0;entryX=1;entryY=0.5;entryDx=0;entryDy=0;entryPerimeter=0;" parent="1" source="6EeKpE1097gxVIoTehE0-40" target="6EeKpE1097gxVIoTehE0-41" edge="1">
          <mxGeometry relative="1" as="geometry" />
        </mxCell>
        <mxCell id="6EeKpE1097gxVIoTehE0-103" style="edgeStyle=orthogonalEdgeStyle;rounded=0;orthogonalLoop=1;jettySize=auto;html=1;exitX=0;exitY=0.5;exitDx=0;exitDy=0;exitPerimeter=0;entryX=1;entryY=0.5;entryDx=0;entryDy=0;" parent="1" source="6EeKpE1097gxVIoTehE0-68" target="6EeKpE1097gxVIoTehE0-91" edge="1">
          <mxGeometry relative="1" as="geometry">
            <Array as="points">
              <mxPoint x="-4180" y="-2620" />
              <mxPoint x="-4180" y="-2640" />
            </Array>
          </mxGeometry>
        </mxCell>
        <mxCell id="LNQYTLU4QdbcK7NXjzKx-28" style="edgeStyle=orthogonalEdgeStyle;rounded=0;orthogonalLoop=1;jettySize=auto;html=1;exitX=1;exitY=0.5;exitDx=0;exitDy=0;exitPerimeter=0;" parent="1" source="6EeKpE1097gxVIoTehE0-68" target="LNQYTLU4QdbcK7NXjzKx-25" edge="1">
          <mxGeometry relative="1" as="geometry" />
        </mxCell>
        <mxCell id="6EeKpE1097gxVIoTehE0-68" value="결제" style="strokeWidth=2;html=1;shape=mxgraph.flowchart.terminator;whiteSpace=wrap;" parent="1" vertex="1">
          <mxGeometry x="-4060" y="-2650" width="200" height="60" as="geometry" />
        </mxCell>
        <mxCell id="6EeKpE1097gxVIoTehE0-74" style="edgeStyle=orthogonalEdgeStyle;rounded=0;orthogonalLoop=1;jettySize=auto;html=1;exitX=0.5;exitY=1;exitDx=0;exitDy=0;entryX=0.5;entryY=0;entryDx=0;entryDy=0;entryPerimeter=0;" parent="1" source="6EeKpE1097gxVIoTehE0-13" target="6EeKpE1097gxVIoTehE0-68" edge="1">
          <mxGeometry relative="1" as="geometry">
            <Array as="points">
              <mxPoint x="-4470" y="-2960" />
              <mxPoint x="-3960" y="-2960" />
            </Array>
          </mxGeometry>
        </mxCell>
        <mxCell id="6EeKpE1097gxVIoTehE0-85" value="정기구독관리" style="whiteSpace=wrap;html=1;align=center;verticalAlign=middle;treeFolding=1;treeMoving=1;" parent="1" vertex="1">
          <mxGeometry x="-4430" y="-2750" width="100" height="60" as="geometry" />
        </mxCell>
        <mxCell id="6EeKpE1097gxVIoTehE0-86" value="AI영양추천 결과" style="whiteSpace=wrap;html=1;align=center;verticalAlign=middle;treeFolding=1;treeMoving=1;" parent="1" vertex="1">
          <mxGeometry x="-4430" y="-2828" width="100" height="60" as="geometry" />
        </mxCell>
        <mxCell id="LNQYTLU4QdbcK7NXjzKx-44" style="edgeStyle=orthogonalEdgeStyle;rounded=0;orthogonalLoop=1;jettySize=auto;html=1;exitX=1;exitY=0.5;exitDx=0;exitDy=0;entryX=0.5;entryY=1;entryDx=0;entryDy=0;" parent="1" source="6EeKpE1097gxVIoTehE0-88" target="LNQYTLU4QdbcK7NXjzKx-37" edge="1">
          <mxGeometry relative="1" as="geometry" />
        </mxCell>
        <mxCell id="6EeKpE1097gxVIoTehE0-88" value="후기관리" style="whiteSpace=wrap;html=1;align=center;verticalAlign=middle;treeFolding=1;treeMoving=1;" parent="1" vertex="1">
          <mxGeometry x="-4430" y="-2590" width="100" height="60" as="geometry" />
        </mxCell>
        <mxCell id="6EeKpE1097gxVIoTehE0-91" value="결제관리" style="whiteSpace=wrap;html=1;align=center;verticalAlign=middle;treeFolding=1;treeMoving=1;" parent="1" vertex="1">
          <mxGeometry x="-4430" y="-2670" width="100" height="60" as="geometry" />
        </mxCell>
        <mxCell id="6EeKpE1097gxVIoTehE0-92" value="내정보 관리" style="whiteSpace=wrap;html=1;align=center;verticalAlign=middle;treeFolding=1;treeMoving=1;" parent="1" vertex="1">
          <mxGeometry x="-4430" y="-2510" width="100" height="60" as="geometry" />
        </mxCell>
        <mxCell id="6EeKpE1097gxVIoTehE0-93" value="로그아웃" style="whiteSpace=wrap;html=1;align=center;verticalAlign=middle;treeFolding=1;treeMoving=1;" parent="1" vertex="1">
          <mxGeometry x="-4430" y="-2430" width="100" height="60" as="geometry" />
        </mxCell>
        <mxCell id="6EeKpE1097gxVIoTehE0-106" value="비밀번호 찾기" style="rounded=1;whiteSpace=wrap;html=1;absoluteArcSize=1;arcSize=14;strokeWidth=2;" parent="1" vertex="1">
          <mxGeometry x="-5220" y="-3400" width="200" height="60" as="geometry" />
        </mxCell>
        <mxCell id="6EeKpE1097gxVIoTehE0-108" style="edgeStyle=orthogonalEdgeStyle;rounded=0;orthogonalLoop=1;jettySize=auto;html=1;exitX=1;exitY=0.5;exitDx=0;exitDy=0;entryX=0;entryY=0.5;entryDx=0;entryDy=0;entryPerimeter=0;" parent="1" source="6EeKpE1097gxVIoTehE0-106" target="6EeKpE1097gxVIoTehE0-4" edge="1">
          <mxGeometry relative="1" as="geometry" />
        </mxCell>
        <mxCell id="6EeKpE1097gxVIoTehE0-110" style="edgeStyle=orthogonalEdgeStyle;rounded=0;orthogonalLoop=1;jettySize=auto;html=1;exitX=0;exitY=0.5;exitDx=0;exitDy=0;entryX=0.685;entryY=1.039;entryDx=0;entryDy=0;entryPerimeter=0;" parent="1" source="6EeKpE1097gxVIoTehE0-34" target="6EeKpE1097gxVIoTehE0-9" edge="1">
          <mxGeometry relative="1" as="geometry" />
        </mxCell>
        <mxCell id="6EeKpE1097gxVIoTehE0-120" style="edgeStyle=orthogonalEdgeStyle;rounded=0;orthogonalLoop=1;jettySize=auto;html=1;exitX=0.93;exitY=0.5;exitDx=0;exitDy=0;exitPerimeter=0;entryX=0;entryY=0.25;entryDx=0;entryDy=0;" parent="1" source="6EeKpE1097gxVIoTehE0-113" target="6EeKpE1097gxVIoTehE0-86" edge="1">
          <mxGeometry relative="1" as="geometry" />
        </mxCell>
        <mxCell id="6EeKpE1097gxVIoTehE0-113" value="data" style="strokeWidth=2;html=1;shape=mxgraph.flowchart.stored_data;whiteSpace=wrap;" parent="1" vertex="1">
          <mxGeometry x="-5390" y="-2828" width="100" height="30" as="geometry" />
        </mxCell>
        <mxCell id="6EeKpE1097gxVIoTehE0-116" style="edgeStyle=orthogonalEdgeStyle;rounded=0;orthogonalLoop=1;jettySize=auto;html=1;exitX=0.5;exitY=0;exitDx=0;exitDy=0;exitPerimeter=0;entryX=1;entryY=0.5;entryDx=0;entryDy=0;" parent="1" source="6EeKpE1097gxVIoTehE0-115" target="6EeKpE1097gxVIoTehE0-7" edge="1">
          <mxGeometry relative="1" as="geometry" />
        </mxCell>
        <mxCell id="6EeKpE1097gxVIoTehE0-115" value="data" style="strokeWidth=2;html=1;shape=mxgraph.flowchart.stored_data;whiteSpace=wrap;" parent="1" vertex="1">
          <mxGeometry x="-3980" y="-3580" width="100" height="30" as="geometry" />
        </mxCell>
        <mxCell id="6EeKpE1097gxVIoTehE0-118" value="data" style="strokeWidth=2;html=1;shape=mxgraph.flowchart.stored_data;whiteSpace=wrap;" parent="1" vertex="1">
          <mxGeometry x="-3900" y="-3070" width="100" height="30" as="geometry" />
        </mxCell>
        <mxCell id="6EeKpE1097gxVIoTehE0-121" style="edgeStyle=orthogonalEdgeStyle;rounded=0;orthogonalLoop=1;jettySize=auto;html=1;exitX=0;exitY=0.85;exitDx=0;exitDy=0;exitPerimeter=0;entryX=0.5;entryY=0;entryDx=0;entryDy=0;entryPerimeter=0;" parent="1" source="6EeKpE1097gxVIoTehE0-41" target="6EeKpE1097gxVIoTehE0-118" edge="1">
          <mxGeometry relative="1" as="geometry" />
        </mxCell>
        <mxCell id="6EeKpE1097gxVIoTehE0-122" style="edgeStyle=orthogonalEdgeStyle;rounded=0;orthogonalLoop=1;jettySize=auto;html=1;exitX=0.5;exitY=1;exitDx=0;exitDy=0;exitPerimeter=0;" parent="1" source="6EeKpE1097gxVIoTehE0-118" edge="1">
          <mxGeometry relative="1" as="geometry">
            <mxPoint x="-3920" y="-2650" as="targetPoint" />
          </mxGeometry>
        </mxCell>
        <mxCell id="LNQYTLU4QdbcK7NXjzKx-12" style="edgeStyle=orthogonalEdgeStyle;rounded=0;orthogonalLoop=1;jettySize=auto;html=1;exitX=1;exitY=0.5;exitDx=0;exitDy=0;entryX=0;entryY=0.5;entryDx=0;entryDy=0;" parent="1" source="LNQYTLU4QdbcK7NXjzKx-1" target="6EeKpE1097gxVIoTehE0-57" edge="1">
          <mxGeometry relative="1" as="geometry" />
        </mxCell>
        <mxCell id="LNQYTLU4QdbcK7NXjzKx-18" style="edgeStyle=orthogonalEdgeStyle;rounded=0;orthogonalLoop=1;jettySize=auto;html=1;exitX=0.5;exitY=1;exitDx=0;exitDy=0;entryX=0;entryY=0.5;entryDx=0;entryDy=0;" parent="1" source="LNQYTLU4QdbcK7NXjzKx-1" target="LNQYTLU4QdbcK7NXjzKx-16" edge="1">
          <mxGeometry relative="1" as="geometry" />
        </mxCell>
        <mxCell id="LNQYTLU4QdbcK7NXjzKx-19" style="edgeStyle=orthogonalEdgeStyle;rounded=0;orthogonalLoop=1;jettySize=auto;html=1;exitX=0.5;exitY=1;exitDx=0;exitDy=0;entryX=0;entryY=0.5;entryDx=0;entryDy=0;" parent="1" source="LNQYTLU4QdbcK7NXjzKx-1" target="LNQYTLU4QdbcK7NXjzKx-17" edge="1">
          <mxGeometry relative="1" as="geometry" />
        </mxCell>
        <mxCell id="LNQYTLU4QdbcK7NXjzKx-1" value="후기페이지" style="rounded=1;whiteSpace=wrap;html=1;absoluteArcSize=1;arcSize=14;strokeWidth=2;" parent="1" vertex="1">
          <mxGeometry x="-4580" y="-3560" width="200" height="60" as="geometry" />
        </mxCell>
        <mxCell id="LNQYTLU4QdbcK7NXjzKx-10" style="edgeStyle=orthogonalEdgeStyle;rounded=0;orthogonalLoop=1;jettySize=auto;html=1;exitX=0.5;exitY=1;exitDx=0;exitDy=0;exitPerimeter=0;" parent="1" source="LNQYTLU4QdbcK7NXjzKx-8" target="LNQYTLU4QdbcK7NXjzKx-9" edge="1">
          <mxGeometry relative="1" as="geometry" />
        </mxCell>
        <mxCell id="LNQYTLU4QdbcK7NXjzKx-8" value="DB review" style="strokeWidth=2;html=1;shape=mxgraph.flowchart.database;whiteSpace=wrap;" parent="1" vertex="1">
          <mxGeometry x="-4580" y="-3730" width="200" height="60" as="geometry" />
        </mxCell>
        <mxCell id="LNQYTLU4QdbcK7NXjzKx-11" style="edgeStyle=orthogonalEdgeStyle;rounded=0;orthogonalLoop=1;jettySize=auto;html=1;exitX=0.5;exitY=1;exitDx=0;exitDy=0;exitPerimeter=0;entryX=0.503;entryY=0;entryDx=0;entryDy=0;entryPerimeter=0;" parent="1" source="LNQYTLU4QdbcK7NXjzKx-9" target="LNQYTLU4QdbcK7NXjzKx-1" edge="1">
          <mxGeometry relative="1" as="geometry">
            <mxPoint x="-4479.470588235294" y="-3570" as="targetPoint" />
          </mxGeometry>
        </mxCell>
        <mxCell id="LNQYTLU4QdbcK7NXjzKx-9" value="data" style="strokeWidth=2;html=1;shape=mxgraph.flowchart.stored_data;whiteSpace=wrap;" parent="1" vertex="1">
          <mxGeometry x="-4530" y="-3630" width="100" height="30" as="geometry" />
        </mxCell>
        <mxCell id="LNQYTLU4QdbcK7NXjzKx-16" value="상세후기" style="whiteSpace=wrap;html=1;align=center;verticalAlign=middle;treeFolding=1;treeMoving=1;" parent="1" vertex="1">
          <mxGeometry x="-4440" y="-3440" width="100" height="60" as="geometry" />
        </mxCell>
        <mxCell id="LNQYTLU4QdbcK7NXjzKx-17" value="후기작성" style="whiteSpace=wrap;html=1;align=center;verticalAlign=middle;treeFolding=1;treeMoving=1;" parent="1" vertex="1">
          <mxGeometry x="-4440" y="-3330" width="100" height="60" as="geometry" />
        </mxCell>
        <mxCell id="LNQYTLU4QdbcK7NXjzKx-20" style="edgeStyle=orthogonalEdgeStyle;rounded=0;orthogonalLoop=1;jettySize=auto;html=1;exitX=0;exitY=0.75;exitDx=0;exitDy=0;entryX=0;entryY=0.5;entryDx=0;entryDy=0;entryPerimeter=0;" parent="1" source="LNQYTLU4QdbcK7NXjzKx-17" target="LNQYTLU4QdbcK7NXjzKx-8" edge="1">
          <mxGeometry relative="1" as="geometry" />
        </mxCell>
        <mxCell id="LNQYTLU4QdbcK7NXjzKx-21" value="DB payment" style="strokeWidth=2;html=1;shape=mxgraph.flowchart.database;whiteSpace=wrap;" parent="1" vertex="1">
          <mxGeometry x="-3540" y="-2520" width="200" height="60" as="geometry" />
        </mxCell>
        <mxCell id="LNQYTLU4QdbcK7NXjzKx-25" value="data" style="shape=parallelogram;html=1;strokeWidth=2;perimeter=parallelogramPerimeter;whiteSpace=wrap;rounded=1;arcSize=12;size=0.23;" parent="1" vertex="1">
          <mxGeometry x="-3730" y="-2635" width="100" height="30" as="geometry" />
        </mxCell>
        <mxCell id="LNQYTLU4QdbcK7NXjzKx-29" style="edgeStyle=orthogonalEdgeStyle;rounded=0;orthogonalLoop=1;jettySize=auto;html=1;exitX=1;exitY=0.5;exitDx=0;exitDy=0;entryX=0.5;entryY=0;entryDx=0;entryDy=0;entryPerimeter=0;" parent="1" source="LNQYTLU4QdbcK7NXjzKx-25" target="LNQYTLU4QdbcK7NXjzKx-21" edge="1">
          <mxGeometry relative="1" as="geometry" />
        </mxCell>
        <mxCell id="LNQYTLU4QdbcK7NXjzKx-32" style="edgeStyle=orthogonalEdgeStyle;rounded=0;orthogonalLoop=1;jettySize=auto;html=1;exitX=0;exitY=0.5;exitDx=0;exitDy=0;exitPerimeter=0;entryX=1;entryY=0.75;entryDx=0;entryDy=0;" parent="1" source="LNQYTLU4QdbcK7NXjzKx-30" target="6EeKpE1097gxVIoTehE0-91" edge="1">
          <mxGeometry relative="1" as="geometry">
            <Array as="points">
              <mxPoint x="-4230" y="-2490" />
              <mxPoint x="-4230" y="-2625" />
            </Array>
          </mxGeometry>
        </mxCell>
        <mxCell id="LNQYTLU4QdbcK7NXjzKx-30" value="data" style="strokeWidth=2;html=1;shape=mxgraph.flowchart.stored_data;whiteSpace=wrap;" parent="1" vertex="1">
          <mxGeometry x="-4010" y="-2505" width="100" height="30" as="geometry" />
        </mxCell>
        <mxCell id="LNQYTLU4QdbcK7NXjzKx-31" style="edgeStyle=orthogonalEdgeStyle;rounded=0;orthogonalLoop=1;jettySize=auto;html=1;exitX=0;exitY=0.5;exitDx=0;exitDy=0;exitPerimeter=0;entryX=0.93;entryY=0.5;entryDx=0;entryDy=0;entryPerimeter=0;" parent="1" source="LNQYTLU4QdbcK7NXjzKx-21" target="LNQYTLU4QdbcK7NXjzKx-30" edge="1">
          <mxGeometry relative="1" as="geometry" />
        </mxCell>
        <mxCell id="LNQYTLU4QdbcK7NXjzKx-42" style="edgeStyle=orthogonalEdgeStyle;rounded=0;orthogonalLoop=1;jettySize=auto;html=1;exitX=0.5;exitY=1;exitDx=0;exitDy=0;exitPerimeter=0;entryX=0.5;entryY=0;entryDx=0;entryDy=0;" parent="1" source="LNQYTLU4QdbcK7NXjzKx-34" target="LNQYTLU4QdbcK7NXjzKx-37" edge="1">
          <mxGeometry relative="1" as="geometry" />
        </mxCell>
        <mxCell id="LNQYTLU4QdbcK7NXjzKx-34" value="data" style="strokeWidth=2;html=1;shape=mxgraph.flowchart.stored_data;whiteSpace=wrap;" parent="1" vertex="1">
          <mxGeometry x="-4250" y="-3130" width="100" height="30" as="geometry" />
        </mxCell>
        <mxCell id="LNQYTLU4QdbcK7NXjzKx-45" style="edgeStyle=orthogonalEdgeStyle;rounded=0;orthogonalLoop=1;jettySize=auto;html=1;exitX=0.5;exitY=1;exitDx=0;exitDy=0;entryX=1;entryY=0.5;entryDx=0;entryDy=0;" parent="1" source="LNQYTLU4QdbcK7NXjzKx-37" target="6EeKpE1097gxVIoTehE0-88" edge="1">
          <mxGeometry relative="1" as="geometry" />
        </mxCell>
        <mxCell id="LNQYTLU4QdbcK7NXjzKx-37" value="data" style="shape=parallelogram;html=1;strokeWidth=2;perimeter=parallelogramPerimeter;whiteSpace=wrap;rounded=1;arcSize=12;size=0.23;" parent="1" vertex="1">
          <mxGeometry x="-4250" y="-2828" width="100" height="30" as="geometry" />
        </mxCell>
        <mxCell id="LNQYTLU4QdbcK7NXjzKx-40" style="edgeStyle=orthogonalEdgeStyle;rounded=0;orthogonalLoop=1;jettySize=auto;html=1;exitX=0;exitY=0.25;exitDx=0;exitDy=0;entryX=1;entryY=0.5;entryDx=0;entryDy=0;entryPerimeter=0;" parent="1" source="LNQYTLU4QdbcK7NXjzKx-37" target="LNQYTLU4QdbcK7NXjzKx-8" edge="1">
          <mxGeometry relative="1" as="geometry">
            <Array as="points">
              <mxPoint x="-4280" y="-2818" />
              <mxPoint x="-4280" y="-3700" />
            </Array>
          </mxGeometry>
        </mxCell>
        <mxCell id="LNQYTLU4QdbcK7NXjzKx-41" style="edgeStyle=orthogonalEdgeStyle;rounded=0;orthogonalLoop=1;jettySize=auto;html=1;exitX=1;exitY=0.5;exitDx=0;exitDy=0;exitPerimeter=0;entryX=0;entryY=0.5;entryDx=0;entryDy=0;entryPerimeter=0;" parent="1" source="LNQYTLU4QdbcK7NXjzKx-8" target="LNQYTLU4QdbcK7NXjzKx-34" edge="1">
          <mxGeometry relative="1" as="geometry">
            <Array as="points">
              <mxPoint x="-4280" y="-3700" />
              <mxPoint x="-4280" y="-3115" />
            </Array>
          </mxGeometry>
        </mxCell>
        <mxCell id="Jq7RuhvPVXbI7fcz3Nos-1" value="" style="endArrow=classic;html=1;rounded=0;" parent="1" edge="1">
          <mxGeometry relative="1" as="geometry">
            <mxPoint x="-6360.5" y="-4580" as="sourcePoint" />
            <mxPoint x="-6360" y="-4540" as="targetPoint" />
          </mxGeometry>
        </mxCell>
        <mxCell id="Jq7RuhvPVXbI7fcz3Nos-5" style="edgeStyle=orthogonalEdgeStyle;rounded=0;orthogonalLoop=1;jettySize=auto;html=1;exitX=0.5;exitY=1;exitDx=0;exitDy=0;" parent="1" source="6EeKpE1097gxVIoTehE0-11" target="6EeKpE1097gxVIoTehE0-11" edge="1">
          <mxGeometry relative="1" as="geometry" />
        </mxCell>
        <mxCell id="Jq7RuhvPVXbI7fcz3Nos-8" value="" style="endArrow=classic;html=1;rounded=0;entryX=0.5;entryY=0;entryDx=0;entryDy=0;" parent="1" target="0IM65uLI26XqDAjvXvkj-47" edge="1">
          <mxGeometry relative="1" as="geometry">
            <mxPoint x="-6360.59" y="-4490" as="sourcePoint" />
            <mxPoint x="-6361" y="-4440" as="targetPoint" />
          </mxGeometry>
        </mxCell>
        <mxCell id="Jq7RuhvPVXbI7fcz3Nos-9" value="yes" style="edgeLabel;resizable=0;html=1;align=center;verticalAlign=middle;" parent="Jq7RuhvPVXbI7fcz3Nos-8" connectable="0" vertex="1">
          <mxGeometry relative="1" as="geometry">
            <mxPoint y="-1" as="offset" />
          </mxGeometry>
        </mxCell>
        <mxCell id="Jq7RuhvPVXbI7fcz3Nos-10" value="" style="endArrow=classic;html=1;rounded=0;" parent="1" edge="1">
          <mxGeometry relative="1" as="geometry">
            <mxPoint x="-6300" y="-4515.59" as="sourcePoint" />
            <mxPoint x="-6200" y="-4515.59" as="targetPoint" />
          </mxGeometry>
        </mxCell>
        <mxCell id="Jq7RuhvPVXbI7fcz3Nos-11" value="no" style="edgeLabel;resizable=0;html=1;align=center;verticalAlign=middle;" parent="Jq7RuhvPVXbI7fcz3Nos-10" connectable="0" vertex="1">
          <mxGeometry relative="1" as="geometry" />
        </mxCell>
        <mxCell id="Jq7RuhvPVXbI7fcz3Nos-14" style="edgeStyle=orthogonalEdgeStyle;rounded=0;orthogonalLoop=1;jettySize=auto;html=1;exitX=0.5;exitY=1;exitDx=0;exitDy=0;" parent="1" source="Jq7RuhvPVXbI7fcz3Nos-13" edge="1">
          <mxGeometry relative="1" as="geometry">
            <mxPoint x="-6140" y="-4450" as="targetPoint" />
          </mxGeometry>
        </mxCell>
        <mxCell id="Jq7RuhvPVXbI7fcz3Nos-13" value="회원가입" style="rounded=1;whiteSpace=wrap;html=1;absoluteArcSize=1;arcSize=14;strokeWidth=2;" parent="1" vertex="1">
          <mxGeometry x="-6200" y="-4535" width="120" height="40" as="geometry" />
        </mxCell>
        <mxCell id="Jq7RuhvPVXbI7fcz3Nos-15" value="회원정보 제출" style="rounded=1;whiteSpace=wrap;html=1;absoluteArcSize=1;arcSize=14;strokeWidth=2;" parent="1" vertex="1">
          <mxGeometry x="-6200" y="-4450" width="120" height="40" as="geometry" />
        </mxCell>
        <mxCell id="Jq7RuhvPVXbI7fcz3Nos-21" value="승인" style="strokeWidth=2;html=1;shape=mxgraph.flowchart.decision;whiteSpace=wrap;" parent="1" vertex="1">
          <mxGeometry x="-6200" y="-4360" width="120" height="50" as="geometry" />
        </mxCell>
        <mxCell id="Jq7RuhvPVXbI7fcz3Nos-22" value="" style="endArrow=classic;html=1;rounded=0;entryX=1;entryY=0;entryDx=0;entryDy=15;entryPerimeter=0;" parent="1" target="0IM65uLI26XqDAjvXvkj-67" edge="1">
          <mxGeometry relative="1" as="geometry">
            <mxPoint x="-6140.59" y="-4310" as="sourcePoint" />
            <mxPoint x="-6141" y="-4200" as="targetPoint" />
          </mxGeometry>
        </mxCell>
        <mxCell id="Jq7RuhvPVXbI7fcz3Nos-23" value="" style="shape=message;html=1;outlineConnect=0;" parent="Jq7RuhvPVXbI7fcz3Nos-22" vertex="1">
          <mxGeometry width="20" height="14" relative="1" as="geometry">
            <mxPoint x="-10" y="-7" as="offset" />
          </mxGeometry>
        </mxCell>
        <mxCell id="Jq7RuhvPVXbI7fcz3Nos-26" style="edgeStyle=orthogonalEdgeStyle;rounded=0;orthogonalLoop=1;jettySize=auto;html=1;exitX=0.5;exitY=1;exitDx=0;exitDy=0;entryX=0.5;entryY=0;entryDx=0;entryDy=0;entryPerimeter=0;" parent="1" source="Jq7RuhvPVXbI7fcz3Nos-15" target="Jq7RuhvPVXbI7fcz3Nos-21" edge="1">
          <mxGeometry relative="1" as="geometry" />
        </mxCell>
        <mxCell id="Jq7RuhvPVXbI7fcz3Nos-27" style="edgeStyle=orthogonalEdgeStyle;rounded=0;orthogonalLoop=1;jettySize=auto;html=1;exitX=0.5;exitY=1;exitDx=0;exitDy=0;exitPerimeter=0;entryX=1;entryY=0.5;entryDx=0;entryDy=0;entryPerimeter=0;" parent="1" source="Jq7RuhvPVXbI7fcz3Nos-21" target="0IM65uLI26XqDAjvXvkj-45" edge="1">
          <mxGeometry relative="1" as="geometry" />
        </mxCell>
        <mxCell id="Jq7RuhvPVXbI7fcz3Nos-29" value="로그인" style="strokeWidth=2;html=1;shape=mxgraph.flowchart.decision;whiteSpace=wrap;" parent="1" vertex="1">
          <mxGeometry x="-5910" y="-4545" width="120" height="50" as="geometry" />
        </mxCell>
        <mxCell id="Jq7RuhvPVXbI7fcz3Nos-30" style="edgeStyle=orthogonalEdgeStyle;rounded=0;orthogonalLoop=1;jettySize=auto;html=1;exitX=0.5;exitY=1;exitDx=0;exitDy=0;exitPerimeter=0;entryX=0.5;entryY=0;entryDx=0;entryDy=0;entryPerimeter=0;" parent="1" target="Jq7RuhvPVXbI7fcz3Nos-29" edge="1">
          <mxGeometry relative="1" as="geometry">
            <mxPoint x="-5850" y="-4580" as="sourcePoint" />
          </mxGeometry>
        </mxCell>
        <mxCell id="Jq7RuhvPVXbI7fcz3Nos-31" value="로그인" style="rounded=1;whiteSpace=wrap;html=1;absoluteArcSize=1;arcSize=14;strokeWidth=2;" parent="1" vertex="1">
          <mxGeometry x="-5690" y="-4540" width="120" height="40" as="geometry" />
        </mxCell>
        <mxCell id="Jq7RuhvPVXbI7fcz3Nos-32" value="" style="endArrow=classic;html=1;rounded=0;entryX=0.5;entryY=0;entryDx=0;entryDy=0;entryPerimeter=0;" parent="1" edge="1">
          <mxGeometry relative="1" as="geometry">
            <mxPoint x="-5850.59" y="-4495" as="sourcePoint" />
            <mxPoint x="-5850" y="-4430" as="targetPoint" />
          </mxGeometry>
        </mxCell>
        <mxCell id="Jq7RuhvPVXbI7fcz3Nos-33" value="yes" style="edgeLabel;resizable=0;html=1;align=center;verticalAlign=middle;" parent="Jq7RuhvPVXbI7fcz3Nos-32" connectable="0" vertex="1">
          <mxGeometry relative="1" as="geometry">
            <mxPoint y="-1" as="offset" />
          </mxGeometry>
        </mxCell>
        <mxCell id="Jq7RuhvPVXbI7fcz3Nos-34" value="" style="endArrow=classic;html=1;rounded=0;" parent="1" edge="1">
          <mxGeometry relative="1" as="geometry">
            <mxPoint x="-5790" y="-4520.59" as="sourcePoint" />
            <mxPoint x="-5690" y="-4520.59" as="targetPoint" />
          </mxGeometry>
        </mxCell>
        <mxCell id="Jq7RuhvPVXbI7fcz3Nos-35" value="no" style="edgeLabel;resizable=0;html=1;align=center;verticalAlign=middle;" parent="Jq7RuhvPVXbI7fcz3Nos-34" connectable="0" vertex="1">
          <mxGeometry relative="1" as="geometry" />
        </mxCell>
        <mxCell id="Jq7RuhvPVXbI7fcz3Nos-47" style="edgeStyle=orthogonalEdgeStyle;rounded=0;orthogonalLoop=1;jettySize=auto;html=1;exitX=0.5;exitY=1;exitDx=0;exitDy=0;entryX=0.5;entryY=0;entryDx=0;entryDy=0;" parent="1" target="Jq7RuhvPVXbI7fcz3Nos-39" edge="1">
          <mxGeometry relative="1" as="geometry">
            <mxPoint x="-5850" y="-4390" as="sourcePoint" />
          </mxGeometry>
        </mxCell>
        <mxCell id="Jq7RuhvPVXbI7fcz3Nos-39" value="변수에 점수 누적" style="rounded=1;whiteSpace=wrap;html=1;absoluteArcSize=1;arcSize=14;strokeWidth=2;" parent="1" vertex="1">
          <mxGeometry x="-5910" y="-4340" width="120" height="40" as="geometry" />
        </mxCell>
        <mxCell id="Jq7RuhvPVXbI7fcz3Nos-40" value="결과(상위 3개)도출" style="rounded=1;whiteSpace=wrap;html=1;absoluteArcSize=1;arcSize=14;strokeWidth=2;" parent="1" vertex="1">
          <mxGeometry x="-5910" y="-4170" width="120" height="40" as="geometry" />
        </mxCell>
        <mxCell id="Jq7RuhvPVXbI7fcz3Nos-43" value="상품추천" style="strokeWidth=2;html=1;shape=mxgraph.flowchart.terminator;whiteSpace=wrap;" parent="1" vertex="1">
          <mxGeometry x="-5910" y="-4090" width="120" height="40" as="geometry" />
        </mxCell>
        <mxCell id="Jq7RuhvPVXbI7fcz3Nos-49" style="edgeStyle=orthogonalEdgeStyle;rounded=0;orthogonalLoop=1;jettySize=auto;html=1;exitX=0.5;exitY=1;exitDx=0;exitDy=0;exitPerimeter=0;entryX=0.5;entryY=0;entryDx=0;entryDy=0;" parent="1" source="Jq7RuhvPVXbI7fcz3Nos-44" target="Jq7RuhvPVXbI7fcz3Nos-40" edge="1">
          <mxGeometry relative="1" as="geometry" />
        </mxCell>
        <mxCell id="Jq7RuhvPVXbI7fcz3Nos-44" value="" style="verticalLabelPosition=bottom;verticalAlign=top;html=1;shape=mxgraph.flowchart.sort;" parent="1" vertex="1">
          <mxGeometry x="-5910" y="-4250" width="120" height="40" as="geometry" />
        </mxCell>
        <mxCell id="Jq7RuhvPVXbI7fcz3Nos-48" style="edgeStyle=orthogonalEdgeStyle;rounded=0;orthogonalLoop=1;jettySize=auto;html=1;exitX=0.5;exitY=1;exitDx=0;exitDy=0;entryX=0.5;entryY=0;entryDx=0;entryDy=0;entryPerimeter=0;" parent="1" source="Jq7RuhvPVXbI7fcz3Nos-39" target="Jq7RuhvPVXbI7fcz3Nos-44" edge="1">
          <mxGeometry relative="1" as="geometry" />
        </mxCell>
        <mxCell id="Jq7RuhvPVXbI7fcz3Nos-50" style="edgeStyle=orthogonalEdgeStyle;rounded=0;orthogonalLoop=1;jettySize=auto;html=1;exitX=0.5;exitY=1;exitDx=0;exitDy=0;entryX=0.5;entryY=0;entryDx=0;entryDy=0;entryPerimeter=0;" parent="1" source="Jq7RuhvPVXbI7fcz3Nos-40" target="Jq7RuhvPVXbI7fcz3Nos-43" edge="1">
          <mxGeometry relative="1" as="geometry" />
        </mxCell>
        <mxCell id="Jq7RuhvPVXbI7fcz3Nos-51" value="DB Survey" style="shape=cylinder3;whiteSpace=wrap;html=1;boundedLbl=1;backgroundOutline=1;size=15;" parent="1" vertex="1">
          <mxGeometry x="-5690" y="-4180" width="120" height="50" as="geometry" />
        </mxCell>
        <mxCell id="Jq7RuhvPVXbI7fcz3Nos-52" style="edgeStyle=orthogonalEdgeStyle;rounded=0;orthogonalLoop=1;jettySize=auto;html=1;exitX=1;exitY=0.5;exitDx=0;exitDy=0;entryX=0;entryY=0;entryDx=0;entryDy=30;entryPerimeter=0;" parent="1" source="Jq7RuhvPVXbI7fcz3Nos-40" target="Jq7RuhvPVXbI7fcz3Nos-51" edge="1">
          <mxGeometry relative="1" as="geometry">
            <mxPoint x="-5710" y="-4150" as="targetPoint" />
          </mxGeometry>
        </mxCell>
        <mxCell id="Jq7RuhvPVXbI7fcz3Nos-57" value="상품상세페이지" style="rounded=1;whiteSpace=wrap;html=1;absoluteArcSize=1;arcSize=14;strokeWidth=2;" parent="1" vertex="1">
          <mxGeometry x="-5040" y="-4600" width="120" height="40" as="geometry" />
        </mxCell>
        <mxCell id="Jq7RuhvPVXbI7fcz3Nos-58" value="상품페이지" style="rounded=1;whiteSpace=wrap;html=1;absoluteArcSize=1;arcSize=14;strokeWidth=2;" parent="1" vertex="1">
          <mxGeometry x="-5320" y="-4600" width="120" height="40" as="geometry" />
        </mxCell>
        <mxCell id="Jq7RuhvPVXbI7fcz3Nos-60" value="" style="strokeWidth=2;html=1;shape=mxgraph.flowchart.annotation_2;align=left;labelPosition=right;pointerEvents=1;direction=north;" parent="1" vertex="1">
          <mxGeometry x="-5260" y="-4560" width="280" height="80" as="geometry" />
        </mxCell>
        <mxCell id="Jq7RuhvPVXbI7fcz3Nos-61" style="edgeStyle=orthogonalEdgeStyle;rounded=0;orthogonalLoop=1;jettySize=auto;html=1;exitX=0;exitY=0.5;exitDx=0;exitDy=0;exitPerimeter=0;" parent="1" source="Jq7RuhvPVXbI7fcz3Nos-60" target="Jq7RuhvPVXbI7fcz3Nos-60" edge="1">
          <mxGeometry relative="1" as="geometry" />
        </mxCell>
        <mxCell id="Jq7RuhvPVXbI7fcz3Nos-62" style="edgeStyle=orthogonalEdgeStyle;rounded=0;orthogonalLoop=1;jettySize=auto;html=1;exitX=0;exitY=0.5;exitDx=0;exitDy=0;exitPerimeter=0;" parent="1" source="Jq7RuhvPVXbI7fcz3Nos-60" target="Jq7RuhvPVXbI7fcz3Nos-60" edge="1">
          <mxGeometry relative="1" as="geometry" />
        </mxCell>
        <mxCell id="Jq7RuhvPVXbI7fcz3Nos-89" style="edgeStyle=orthogonalEdgeStyle;rounded=0;orthogonalLoop=1;jettySize=auto;html=1;exitX=1;exitY=0.5;exitDx=0;exitDy=0;exitPerimeter=0;entryX=0;entryY=0.5;entryDx=0;entryDy=0;" parent="1" source="Jq7RuhvPVXbI7fcz3Nos-63" edge="1">
          <mxGeometry relative="1" as="geometry">
            <mxPoint x="-4980" y="-4450" as="targetPoint" />
          </mxGeometry>
        </mxCell>
        <mxCell id="Jq7RuhvPVXbI7fcz3Nos-63" value="후기페이지" style="strokeWidth=2;html=1;shape=mxgraph.flowchart.start_1;whiteSpace=wrap;" parent="1" vertex="1">
          <mxGeometry x="-5180" y="-4470" width="120" height="40" as="geometry" />
        </mxCell>
        <mxCell id="Jq7RuhvPVXbI7fcz3Nos-64" value="" style="strokeWidth=2;html=1;shape=mxgraph.flowchart.annotation_2;align=left;labelPosition=right;pointerEvents=1;direction=south;" parent="1" vertex="1">
          <mxGeometry x="-5320" y="-4430" width="400" height="90" as="geometry" />
        </mxCell>
        <mxCell id="Jq7RuhvPVXbI7fcz3Nos-85" style="edgeStyle=orthogonalEdgeStyle;rounded=0;orthogonalLoop=1;jettySize=auto;html=1;exitX=1;exitY=0.5;exitDx=0;exitDy=0;exitPerimeter=0;entryX=0;entryY=0.5;entryDx=0;entryDy=0;" parent="1" source="Jq7RuhvPVXbI7fcz3Nos-66" target="Jq7RuhvPVXbI7fcz3Nos-67" edge="1">
          <mxGeometry relative="1" as="geometry" />
        </mxCell>
        <mxCell id="Jq7RuhvPVXbI7fcz3Nos-66" value="DB review,&amp;nbsp; member, product" style="shape=cylinder3;whiteSpace=wrap;html=1;boundedLbl=1;backgroundOutline=1;size=15;" parent="1" vertex="1">
          <mxGeometry x="-5380" y="-4140" width="120" height="50" as="geometry" />
        </mxCell>
        <mxCell id="Jq7RuhvPVXbI7fcz3Nos-73" style="edgeStyle=orthogonalEdgeStyle;rounded=0;orthogonalLoop=1;jettySize=auto;html=1;exitX=0.5;exitY=1;exitDx=0;exitDy=0;entryX=0.5;entryY=0;entryDx=0;entryDy=0;" parent="1" source="Jq7RuhvPVXbI7fcz3Nos-67" target="Jq7RuhvPVXbI7fcz3Nos-72" edge="1">
          <mxGeometry relative="1" as="geometry" />
        </mxCell>
        <mxCell id="Jq7RuhvPVXbI7fcz3Nos-67" value="후기상세페이지" style="rounded=1;whiteSpace=wrap;html=1;absoluteArcSize=1;arcSize=14;strokeWidth=2;" parent="1" vertex="1">
          <mxGeometry x="-4980" y="-4340" width="120" height="40" as="geometry" />
        </mxCell>
        <mxCell id="Jq7RuhvPVXbI7fcz3Nos-68" value="후기작성페이지" style="rounded=1;whiteSpace=wrap;html=1;absoluteArcSize=1;arcSize=14;strokeWidth=2;" parent="1" vertex="1">
          <mxGeometry x="-5380" y="-4340" width="120" height="40" as="geometry" />
        </mxCell>
        <mxCell id="Jq7RuhvPVXbI7fcz3Nos-72" value="상품상세페이지" style="rounded=1;whiteSpace=wrap;html=1;absoluteArcSize=1;arcSize=14;strokeWidth=2;" parent="1" vertex="1">
          <mxGeometry x="-4980" y="-4240" width="120" height="40" as="geometry" />
        </mxCell>
        <mxCell id="Jq7RuhvPVXbI7fcz3Nos-77" value="" style="endArrow=classic;html=1;rounded=0;" parent="1" edge="1">
          <mxGeometry width="50" height="50" relative="1" as="geometry">
            <mxPoint x="-5320" y="-4380" as="sourcePoint" />
            <mxPoint x="-5320" y="-4340" as="targetPoint" />
          </mxGeometry>
        </mxCell>
        <mxCell id="Jq7RuhvPVXbI7fcz3Nos-80" value="" style="endArrow=classic;html=1;rounded=0;exitX=0.512;exitY=0.494;exitDx=0;exitDy=0;exitPerimeter=0;" parent="1" source="Jq7RuhvPVXbI7fcz3Nos-60" edge="1">
          <mxGeometry width="50" height="50" relative="1" as="geometry">
            <mxPoint x="-5120.71" y="-4510" as="sourcePoint" />
            <mxPoint x="-5120.71" y="-4470" as="targetPoint" />
          </mxGeometry>
        </mxCell>
        <mxCell id="Jq7RuhvPVXbI7fcz3Nos-82" value="" style="endArrow=classic;html=1;rounded=0;" parent="1" edge="1">
          <mxGeometry width="50" height="50" relative="1" as="geometry">
            <mxPoint x="-4920" y="-4380" as="sourcePoint" />
            <mxPoint x="-4920" y="-4340" as="targetPoint" />
          </mxGeometry>
        </mxCell>
        <mxCell id="Jq7RuhvPVXbI7fcz3Nos-97" value="&lt;font style=&quot;font-size: 6px;&quot;&gt;data : 후기[코멘트, 이미지, 별점], 유저[이름,성별,나이], 상품[이미지, 이름, 가격]&lt;/font&gt;" style="strokeWidth=2;html=1;shape=mxgraph.flowchart.stored_data;whiteSpace=wrap;" parent="1" vertex="1">
          <mxGeometry x="-5170" y="-4290" width="120" height="60" as="geometry" />
        </mxCell>
        <mxCell id="Jq7RuhvPVXbI7fcz3Nos-98" value="후기 등록" style="strokeWidth=2;html=1;shape=mxgraph.flowchart.terminator;whiteSpace=wrap;" parent="1" vertex="1">
          <mxGeometry x="-5380" y="-4240" width="120" height="40" as="geometry" />
        </mxCell>
        <mxCell id="Jq7RuhvPVXbI7fcz3Nos-99" style="edgeStyle=orthogonalEdgeStyle;rounded=0;orthogonalLoop=1;jettySize=auto;html=1;exitX=0.5;exitY=1;exitDx=0;exitDy=0;entryX=0.5;entryY=0;entryDx=0;entryDy=0;entryPerimeter=0;" parent="1" source="Jq7RuhvPVXbI7fcz3Nos-68" target="Jq7RuhvPVXbI7fcz3Nos-98" edge="1">
          <mxGeometry relative="1" as="geometry" />
        </mxCell>
        <mxCell id="Jq7RuhvPVXbI7fcz3Nos-100" style="edgeStyle=orthogonalEdgeStyle;rounded=0;orthogonalLoop=1;jettySize=auto;html=1;exitX=0.5;exitY=1;exitDx=0;exitDy=0;exitPerimeter=0;entryX=0.5;entryY=0;entryDx=0;entryDy=0;entryPerimeter=0;" parent="1" source="Jq7RuhvPVXbI7fcz3Nos-98" target="Jq7RuhvPVXbI7fcz3Nos-66" edge="1">
          <mxGeometry relative="1" as="geometry" />
        </mxCell>
        <mxCell id="Jq7RuhvPVXbI7fcz3Nos-102" value="메인페이지" style="rounded=1;whiteSpace=wrap;html=1;absoluteArcSize=1;arcSize=14;strokeWidth=2;" parent="1" vertex="1">
          <mxGeometry x="-5910" y="-4620" width="120" height="40" as="geometry" />
        </mxCell>
        <mxCell id="Jq7RuhvPVXbI7fcz3Nos-103" value="설문조사" style="strokeWidth=2;html=1;shape=mxgraph.flowchart.start_1;whiteSpace=wrap;" parent="1" vertex="1">
          <mxGeometry x="-5910" y="-4430" width="120" height="40" as="geometry" />
        </mxCell>
        <mxCell id="Jq7RuhvPVXbI7fcz3Nos-105" style="edgeStyle=orthogonalEdgeStyle;rounded=0;orthogonalLoop=1;jettySize=auto;html=1;exitX=0.5;exitY=1;exitDx=0;exitDy=0;entryX=1;entryY=0.5;entryDx=0;entryDy=0;entryPerimeter=0;" parent="1" source="Jq7RuhvPVXbI7fcz3Nos-31" target="Jq7RuhvPVXbI7fcz3Nos-103" edge="1">
          <mxGeometry relative="1" as="geometry" />
        </mxCell>
        <mxCell id="Jq7RuhvPVXbI7fcz3Nos-106" value="장바구니" style="strokeWidth=2;html=1;shape=mxgraph.flowchart.start_1;whiteSpace=wrap;" parent="1" vertex="1">
          <mxGeometry x="-4550" y="-4515" width="120" height="40" as="geometry" />
        </mxCell>
        <mxCell id="Jq7RuhvPVXbI7fcz3Nos-122" style="edgeStyle=orthogonalEdgeStyle;rounded=0;orthogonalLoop=1;jettySize=auto;html=1;exitX=0.5;exitY=1;exitDx=0;exitDy=0;entryX=0.5;entryY=0;entryDx=0;entryDy=0;entryPerimeter=0;" parent="1" target="Jq7RuhvPVXbI7fcz3Nos-106" edge="1">
          <mxGeometry relative="1" as="geometry">
            <mxPoint x="-4490.142857142857" y="-4520" as="targetPoint" />
            <mxPoint x="-4490" y="-4560" as="sourcePoint" />
          </mxGeometry>
        </mxCell>
        <mxCell id="Jq7RuhvPVXbI7fcz3Nos-109" value="헤더 아이콘" style="rounded=1;whiteSpace=wrap;html=1;absoluteArcSize=1;arcSize=14;strokeWidth=2;" parent="1" vertex="1">
          <mxGeometry x="-4740" y="-4515" width="120" height="40" as="geometry" />
        </mxCell>
        <mxCell id="Jq7RuhvPVXbI7fcz3Nos-110" value="담은 상품 유무" style="strokeWidth=2;html=1;shape=mxgraph.flowchart.decision;whiteSpace=wrap;" parent="1" vertex="1">
          <mxGeometry x="-4550" y="-4397.5" width="120" height="50" as="geometry" />
        </mxCell>
        <mxCell id="Jq7RuhvPVXbI7fcz3Nos-114" value="" style="endArrow=classic;html=1;rounded=0;" parent="1" edge="1">
          <mxGeometry relative="1" as="geometry">
            <mxPoint x="-4430" y="-4373.21" as="sourcePoint" />
            <mxPoint x="-4310" y="-4373.21" as="targetPoint" />
          </mxGeometry>
        </mxCell>
        <mxCell id="Jq7RuhvPVXbI7fcz3Nos-116" value="yes" style="edgeLabel;html=1;align=center;verticalAlign=middle;resizable=0;points=[];" parent="Jq7RuhvPVXbI7fcz3Nos-114" vertex="1" connectable="0">
          <mxGeometry x="0.2257" relative="1" as="geometry">
            <mxPoint x="-11" as="offset" />
          </mxGeometry>
        </mxCell>
        <mxCell id="Jq7RuhvPVXbI7fcz3Nos-117" value="no" style="endArrow=classic;html=1;rounded=0;" parent="1" edge="1">
          <mxGeometry relative="1" as="geometry">
            <mxPoint x="-4490" y="-4347.5" as="sourcePoint" />
            <mxPoint x="-4490" y="-4277.5" as="targetPoint" />
          </mxGeometry>
        </mxCell>
        <mxCell id="Jq7RuhvPVXbI7fcz3Nos-119" value="설문페이지" style="strokeWidth=2;html=1;shape=mxgraph.flowchart.terminator;whiteSpace=wrap;" parent="1" vertex="1">
          <mxGeometry x="-4550" y="-4277.5" width="120" height="40" as="geometry" />
        </mxCell>
        <mxCell id="Jq7RuhvPVXbI7fcz3Nos-121" style="edgeStyle=orthogonalEdgeStyle;rounded=0;orthogonalLoop=1;jettySize=auto;html=1;exitX=1;exitY=0.5;exitDx=0;exitDy=0;entryX=0;entryY=0.5;entryDx=0;entryDy=0;entryPerimeter=0;" parent="1" source="Jq7RuhvPVXbI7fcz3Nos-109" target="Jq7RuhvPVXbI7fcz3Nos-106" edge="1">
          <mxGeometry relative="1" as="geometry" />
        </mxCell>
        <mxCell id="Jq7RuhvPVXbI7fcz3Nos-125" value="상품상세페이지장바구니에 담기" style="rounded=1;whiteSpace=wrap;html=1;absoluteArcSize=1;arcSize=14;strokeWidth=2;" parent="1" vertex="1">
          <mxGeometry x="-4550" y="-4600" width="120" height="40" as="geometry" />
        </mxCell>
        <mxCell id="Jq7RuhvPVXbI7fcz3Nos-134" style="edgeStyle=orthogonalEdgeStyle;rounded=0;orthogonalLoop=1;jettySize=auto;html=1;exitX=0.25;exitY=1;exitDx=0;exitDy=0;entryX=0.25;entryY=0;entryDx=0;entryDy=0;" parent="1" source="Jq7RuhvPVXbI7fcz3Nos-127" target="Jq7RuhvPVXbI7fcz3Nos-129" edge="1">
          <mxGeometry relative="1" as="geometry" />
        </mxCell>
        <mxCell id="Jq7RuhvPVXbI7fcz3Nos-136" style="edgeStyle=orthogonalEdgeStyle;rounded=0;orthogonalLoop=1;jettySize=auto;html=1;exitX=1;exitY=0.5;exitDx=0;exitDy=0;" parent="1" source="Jq7RuhvPVXbI7fcz3Nos-127" edge="1">
          <mxGeometry relative="1" as="geometry">
            <mxPoint x="-4110" y="-4372.785714285714" as="targetPoint" />
          </mxGeometry>
        </mxCell>
        <mxCell id="Jq7RuhvPVXbI7fcz3Nos-127" value="제품금액, 배송비, 총결제금액 정보 표시" style="rounded=1;whiteSpace=wrap;html=1;absoluteArcSize=1;arcSize=14;strokeWidth=2;" parent="1" vertex="1">
          <mxGeometry x="-4310" y="-4392.5" width="120" height="40" as="geometry" />
        </mxCell>
        <mxCell id="Jq7RuhvPVXbI7fcz3Nos-131" style="edgeStyle=orthogonalEdgeStyle;rounded=0;orthogonalLoop=1;jettySize=auto;html=1;exitX=0.5;exitY=1;exitDx=0;exitDy=0;entryX=0.5;entryY=0;entryDx=0;entryDy=0;" parent="1" source="Jq7RuhvPVXbI7fcz3Nos-129" edge="1">
          <mxGeometry relative="1" as="geometry">
            <mxPoint x="-4250" y="-4207.5" as="targetPoint" />
          </mxGeometry>
        </mxCell>
        <mxCell id="Jq7RuhvPVXbI7fcz3Nos-135" style="edgeStyle=orthogonalEdgeStyle;rounded=0;orthogonalLoop=1;jettySize=auto;html=1;exitX=0.75;exitY=0;exitDx=0;exitDy=0;entryX=0.75;entryY=1;entryDx=0;entryDy=0;" parent="1" source="Jq7RuhvPVXbI7fcz3Nos-129" target="Jq7RuhvPVXbI7fcz3Nos-127" edge="1">
          <mxGeometry relative="1" as="geometry" />
        </mxCell>
        <mxCell id="Jq7RuhvPVXbI7fcz3Nos-129" value="제품추가" style="rounded=1;whiteSpace=wrap;html=1;absoluteArcSize=1;arcSize=14;strokeWidth=2;" parent="1" vertex="1">
          <mxGeometry x="-4310" y="-4297.5" width="120" height="40" as="geometry" />
        </mxCell>
        <mxCell id="Jq7RuhvPVXbI7fcz3Nos-132" value="상품페이지" style="strokeWidth=2;html=1;shape=mxgraph.flowchart.terminator;whiteSpace=wrap;" parent="1" vertex="1">
          <mxGeometry x="-4310" y="-4207.5" width="120" height="40" as="geometry" />
        </mxCell>
        <mxCell id="Jq7RuhvPVXbI7fcz3Nos-167" style="edgeStyle=orthogonalEdgeStyle;rounded=0;orthogonalLoop=1;jettySize=auto;html=1;exitX=0.5;exitY=1;exitDx=0;exitDy=0;entryX=0.5;entryY=0;entryDx=0;entryDy=0;" parent="1" source="Jq7RuhvPVXbI7fcz3Nos-137" target="Jq7RuhvPVXbI7fcz3Nos-138" edge="1">
          <mxGeometry relative="1" as="geometry" />
        </mxCell>
        <mxCell id="Jq7RuhvPVXbI7fcz3Nos-137" value="결제하기" style="rounded=1;whiteSpace=wrap;html=1;absoluteArcSize=1;arcSize=14;strokeWidth=2;" parent="1" vertex="1">
          <mxGeometry x="-4110" y="-4392.5" width="120" height="40" as="geometry" />
        </mxCell>
        <mxCell id="Jq7RuhvPVXbI7fcz3Nos-176" style="edgeStyle=orthogonalEdgeStyle;rounded=0;orthogonalLoop=1;jettySize=auto;html=1;exitX=0.5;exitY=1;exitDx=0;exitDy=0;entryX=0.5;entryY=0;entryDx=0;entryDy=0;" parent="1" source="Jq7RuhvPVXbI7fcz3Nos-138" target="Jq7RuhvPVXbI7fcz3Nos-171" edge="1">
          <mxGeometry relative="1" as="geometry" />
        </mxCell>
        <mxCell id="Jq7RuhvPVXbI7fcz3Nos-138" value="주문서작성" style="rounded=1;whiteSpace=wrap;html=1;absoluteArcSize=1;arcSize=14;strokeWidth=2;" parent="1" vertex="1">
          <mxGeometry x="-4110" y="-4302.5" width="120" height="40" as="geometry" />
        </mxCell>
        <mxCell id="Jq7RuhvPVXbI7fcz3Nos-149" value="" style="endArrow=classic;html=1;rounded=0;" parent="1" edge="1">
          <mxGeometry relative="1" as="geometry">
            <mxPoint x="-6361" y="-4300" as="sourcePoint" />
            <mxPoint x="-6360.71" y="-4230" as="targetPoint" />
          </mxGeometry>
        </mxCell>
        <mxCell id="Jq7RuhvPVXbI7fcz3Nos-150" value="" style="shape=message;html=1;outlineConnect=0;" parent="Jq7RuhvPVXbI7fcz3Nos-149" vertex="1">
          <mxGeometry width="20" height="14" relative="1" as="geometry">
            <mxPoint x="-10" y="-7" as="offset" />
          </mxGeometry>
        </mxCell>
        <mxCell id="Jq7RuhvPVXbI7fcz3Nos-164" value="" style="endArrow=classic;html=1;rounded=0;entryX=0.5;entryY=0;entryDx=0;entryDy=0;entryPerimeter=0;exitX=0.5;exitY=1;exitDx=0;exitDy=0;exitPerimeter=0;" parent="1" edge="1" source="Jq7RuhvPVXbI7fcz3Nos-106">
          <mxGeometry relative="1" as="geometry">
            <mxPoint x="-4491.43" y="-4467.5" as="sourcePoint" />
            <mxPoint x="-4491.43" y="-4397.5" as="targetPoint" />
          </mxGeometry>
        </mxCell>
        <mxCell id="Jq7RuhvPVXbI7fcz3Nos-170" style="edgeStyle=orthogonalEdgeStyle;rounded=0;orthogonalLoop=1;jettySize=auto;html=1;exitX=0.5;exitY=1;exitDx=0;exitDy=0;exitPerimeter=0;entryX=0.5;entryY=0;entryDx=0;entryDy=0;" parent="1" source="Jq7RuhvPVXbI7fcz3Nos-168" target="Jq7RuhvPVXbI7fcz3Nos-127" edge="1">
          <mxGeometry relative="1" as="geometry" />
        </mxCell>
        <mxCell id="Jq7RuhvPVXbI7fcz3Nos-168" value="data : 상품명, 가격, 수량" style="strokeWidth=2;html=1;shape=mxgraph.flowchart.stored_data;whiteSpace=wrap;" parent="1" vertex="1">
          <mxGeometry x="-4290" y="-4507.5" width="80" height="30" as="geometry" />
        </mxCell>
        <mxCell id="Jq7RuhvPVXbI7fcz3Nos-169" style="edgeStyle=orthogonalEdgeStyle;rounded=0;orthogonalLoop=1;jettySize=auto;html=1;exitX=1;exitY=0.5;exitDx=0;exitDy=0;exitPerimeter=0;entryX=0;entryY=0.5;entryDx=0;entryDy=0;entryPerimeter=0;" parent="1" target="Jq7RuhvPVXbI7fcz3Nos-168" edge="1">
          <mxGeometry relative="1" as="geometry">
            <mxPoint x="-4430" y="-4492.5" as="sourcePoint" />
          </mxGeometry>
        </mxCell>
        <mxCell id="Jq7RuhvPVXbI7fcz3Nos-171" value="결제요청" style="rounded=1;whiteSpace=wrap;html=1;absoluteArcSize=1;arcSize=14;strokeWidth=2;" parent="1" vertex="1">
          <mxGeometry x="-4110" y="-4207.5" width="120" height="40" as="geometry" />
        </mxCell>
        <mxCell id="Jq7RuhvPVXbI7fcz3Nos-173" value="failed" style="edgeStyle=orthogonalEdgeStyle;rounded=0;orthogonalLoop=1;jettySize=auto;html=1;exitX=1;exitY=0.5;exitDx=0;exitDy=0;exitPerimeter=0;entryX=1;entryY=0.5;entryDx=0;entryDy=0;" parent="1" source="Jq7RuhvPVXbI7fcz3Nos-172" target="Jq7RuhvPVXbI7fcz3Nos-138" edge="1">
          <mxGeometry relative="1" as="geometry">
            <Array as="points">
              <mxPoint x="-3890" y="-4092.5" />
              <mxPoint x="-3890" y="-4282.5" />
            </Array>
          </mxGeometry>
        </mxCell>
        <mxCell id="Jq7RuhvPVXbI7fcz3Nos-172" value="주문 정보 확인" style="strokeWidth=2;html=1;shape=mxgraph.flowchart.decision;whiteSpace=wrap;" parent="1" vertex="1">
          <mxGeometry x="-4110" y="-4117.5" width="120" height="50" as="geometry" />
        </mxCell>
        <mxCell id="Jq7RuhvPVXbI7fcz3Nos-174" value="주문 완료" style="strokeWidth=2;html=1;shape=mxgraph.flowchart.terminator;whiteSpace=wrap;" parent="1" vertex="1">
          <mxGeometry x="-4110" y="-4017.5" width="120" height="40" as="geometry" />
        </mxCell>
        <mxCell id="Jq7RuhvPVXbI7fcz3Nos-175" value="approve" style="edgeStyle=orthogonalEdgeStyle;rounded=0;orthogonalLoop=1;jettySize=auto;html=1;exitX=0.5;exitY=1;exitDx=0;exitDy=0;exitPerimeter=0;entryX=0.5;entryY=0;entryDx=0;entryDy=0;entryPerimeter=0;" parent="1" source="Jq7RuhvPVXbI7fcz3Nos-172" target="Jq7RuhvPVXbI7fcz3Nos-174" edge="1">
          <mxGeometry relative="1" as="geometry" />
        </mxCell>
        <mxCell id="Jq7RuhvPVXbI7fcz3Nos-177" style="edgeStyle=orthogonalEdgeStyle;rounded=0;orthogonalLoop=1;jettySize=auto;html=1;exitX=0.5;exitY=1;exitDx=0;exitDy=0;entryX=0.5;entryY=0;entryDx=0;entryDy=0;entryPerimeter=0;" parent="1" source="Jq7RuhvPVXbI7fcz3Nos-171" target="Jq7RuhvPVXbI7fcz3Nos-172" edge="1">
          <mxGeometry relative="1" as="geometry" />
        </mxCell>
        <mxCell id="Jq7RuhvPVXbI7fcz3Nos-187" style="edgeStyle=orthogonalEdgeStyle;rounded=0;orthogonalLoop=1;jettySize=auto;html=1;exitX=0.5;exitY=1;exitDx=0;exitDy=0;entryX=0.5;entryY=0;entryDx=0;entryDy=0;entryPerimeter=0;" parent="1" source="Jq7RuhvPVXbI7fcz3Nos-178" target="72Trmdz6FEPdabeAoyRc-2" edge="1">
          <mxGeometry relative="1" as="geometry">
            <mxPoint x="-6420" y="-2820" as="targetPoint" />
          </mxGeometry>
        </mxCell>
        <mxCell id="Jq7RuhvPVXbI7fcz3Nos-178" value="관리자로그인" style="rounded=1;whiteSpace=wrap;html=1;absoluteArcSize=1;arcSize=14;strokeWidth=2;" parent="1" vertex="1">
          <mxGeometry x="-6360" y="-2910" width="120" height="40" as="geometry" />
        </mxCell>
        <mxCell id="Jq7RuhvPVXbI7fcz3Nos-201" style="edgeStyle=orthogonalEdgeStyle;rounded=0;orthogonalLoop=1;jettySize=auto;html=1;exitX=1;exitY=0.5;exitDx=0;exitDy=0;exitPerimeter=0;entryX=0;entryY=0.5;entryDx=0;entryDy=0;" parent="1" source="Jq7RuhvPVXbI7fcz3Nos-179" edge="1">
          <mxGeometry relative="1" as="geometry">
            <mxPoint x="-6110" y="-3625" as="targetPoint" />
          </mxGeometry>
        </mxCell>
        <mxCell id="Jq7RuhvPVXbI7fcz3Nos-179" value="상품페이지" style="strokeWidth=2;html=1;shape=mxgraph.flowchart.start_1;whiteSpace=wrap;" parent="1" vertex="1">
          <mxGeometry x="-6290" y="-3645" width="120" height="40" as="geometry" />
        </mxCell>
        <mxCell id="Jq7RuhvPVXbI7fcz3Nos-240" value="NO" style="edgeStyle=orthogonalEdgeStyle;rounded=0;orthogonalLoop=1;jettySize=auto;html=1;exitX=0.5;exitY=1;exitDx=0;exitDy=0;exitPerimeter=0;entryX=0;entryY=0.5;entryDx=0;entryDy=0;" parent="1" source="Jq7RuhvPVXbI7fcz3Nos-180" target="Jq7RuhvPVXbI7fcz3Nos-226" edge="1">
          <mxGeometry relative="1" as="geometry" />
        </mxCell>
        <mxCell id="Jq7RuhvPVXbI7fcz3Nos-180" value="카테고리선택" style="strokeWidth=2;html=1;shape=mxgraph.flowchart.decision;whiteSpace=wrap;" parent="1" vertex="1">
          <mxGeometry x="-6420" y="-3515" width="120" height="50" as="geometry" />
        </mxCell>
        <mxCell id="Jq7RuhvPVXbI7fcz3Nos-211" style="edgeStyle=orthogonalEdgeStyle;rounded=0;orthogonalLoop=1;jettySize=auto;html=1;exitX=0.5;exitY=1;exitDx=0;exitDy=0;exitPerimeter=0;entryX=0;entryY=0.5;entryDx=0;entryDy=0;" parent="1" source="Jq7RuhvPVXbI7fcz3Nos-213" target="Jq7RuhvPVXbI7fcz3Nos-210" edge="1">
          <mxGeometry relative="1" as="geometry" />
        </mxCell>
        <mxCell id="Jq7RuhvPVXbI7fcz3Nos-243" style="edgeStyle=orthogonalEdgeStyle;rounded=0;orthogonalLoop=1;jettySize=auto;html=1;exitX=0.855;exitY=1;exitDx=0;exitDy=-4.35;exitPerimeter=0;entryX=0.25;entryY=1;entryDx=0;entryDy=0;" parent="1" source="Jq7RuhvPVXbI7fcz3Nos-181" target="Jq7RuhvPVXbI7fcz3Nos-203" edge="1">
          <mxGeometry relative="1" as="geometry">
            <Array as="points">
              <mxPoint x="-6430" y="-3599" />
              <mxPoint x="-6430" y="-3330" />
              <mxPoint x="-6080" y="-3330" />
            </Array>
          </mxGeometry>
        </mxCell>
        <mxCell id="Jq7RuhvPVXbI7fcz3Nos-181" value="DB product" style="shape=cylinder3;whiteSpace=wrap;html=1;boundedLbl=1;backgroundOutline=1;size=15;" parent="1" vertex="1">
          <mxGeometry x="-6510" y="-3645" width="120" height="50" as="geometry" />
        </mxCell>
        <mxCell id="Jq7RuhvPVXbI7fcz3Nos-191" style="edgeStyle=orthogonalEdgeStyle;rounded=0;orthogonalLoop=1;jettySize=auto;html=1;exitX=0.5;exitY=1;exitDx=0;exitDy=0;entryX=0.5;entryY=0;entryDx=0;entryDy=0;entryPerimeter=0;" parent="1" source="Jq7RuhvPVXbI7fcz3Nos-189" target="Jq7RuhvPVXbI7fcz3Nos-179" edge="1">
          <mxGeometry relative="1" as="geometry">
            <mxPoint x="-6230" y="-3650" as="targetPoint" />
          </mxGeometry>
        </mxCell>
        <mxCell id="Jq7RuhvPVXbI7fcz3Nos-189" value="메인페이지" style="rounded=1;whiteSpace=wrap;html=1;absoluteArcSize=1;arcSize=14;strokeWidth=2;" parent="1" vertex="1">
          <mxGeometry x="-6370" y="-3730" width="120" height="40" as="geometry" />
        </mxCell>
        <mxCell id="Jq7RuhvPVXbI7fcz3Nos-190" value="장바구니" style="rounded=1;whiteSpace=wrap;html=1;absoluteArcSize=1;arcSize=14;strokeWidth=2;" parent="1" vertex="1">
          <mxGeometry x="-6210" y="-3730" width="120" height="40" as="geometry" />
        </mxCell>
        <mxCell id="Jq7RuhvPVXbI7fcz3Nos-192" style="edgeStyle=orthogonalEdgeStyle;rounded=0;orthogonalLoop=1;jettySize=auto;html=1;exitX=0.5;exitY=1;exitDx=0;exitDy=0;entryX=0.5;entryY=0;entryDx=0;entryDy=0;entryPerimeter=0;" parent="1" source="Jq7RuhvPVXbI7fcz3Nos-190" target="Jq7RuhvPVXbI7fcz3Nos-179" edge="1">
          <mxGeometry relative="1" as="geometry" />
        </mxCell>
        <mxCell id="Jq7RuhvPVXbI7fcz3Nos-193" value="" style="endArrow=classic;html=1;rounded=0;entryX=0;entryY=0.5;entryDx=0;entryDy=0;entryPerimeter=0;" parent="1" target="Jq7RuhvPVXbI7fcz3Nos-179" edge="1">
          <mxGeometry relative="1" as="geometry">
            <mxPoint x="-6390" y="-3620.42" as="sourcePoint" />
            <mxPoint x="-6320" y="-3620.59" as="targetPoint" />
          </mxGeometry>
        </mxCell>
        <mxCell id="Jq7RuhvPVXbI7fcz3Nos-194" value="" style="shape=message;html=1;outlineConnect=0;" parent="Jq7RuhvPVXbI7fcz3Nos-193" vertex="1">
          <mxGeometry width="20" height="14" relative="1" as="geometry">
            <mxPoint x="-10" y="-7" as="offset" />
          </mxGeometry>
        </mxCell>
        <mxCell id="Jq7RuhvPVXbI7fcz3Nos-199" style="edgeStyle=orthogonalEdgeStyle;rounded=0;orthogonalLoop=1;jettySize=auto;html=1;exitX=0.5;exitY=1;exitDx=0;exitDy=0;" parent="1" edge="1">
          <mxGeometry relative="1" as="geometry">
            <mxPoint x="-6070" y="-3530" as="sourcePoint" />
            <mxPoint x="-6070" y="-3530" as="targetPoint" />
          </mxGeometry>
        </mxCell>
        <mxCell id="Jq7RuhvPVXbI7fcz3Nos-209" style="edgeStyle=orthogonalEdgeStyle;rounded=0;orthogonalLoop=1;jettySize=auto;html=1;exitX=0.5;exitY=1;exitDx=0;exitDy=0;entryX=0.5;entryY=0;entryDx=0;entryDy=0;" parent="1" source="Jq7RuhvPVXbI7fcz3Nos-203" target="Jq7RuhvPVXbI7fcz3Nos-205" edge="1">
          <mxGeometry relative="1" as="geometry" />
        </mxCell>
        <mxCell id="Jq7RuhvPVXbI7fcz3Nos-203" value="상품상세페이지" style="rounded=1;whiteSpace=wrap;html=1;absoluteArcSize=1;arcSize=14;strokeWidth=2;" parent="1" vertex="1">
          <mxGeometry x="-6110" y="-3395" width="120" height="40" as="geometry" />
        </mxCell>
        <mxCell id="Jq7RuhvPVXbI7fcz3Nos-212" style="edgeStyle=orthogonalEdgeStyle;rounded=0;orthogonalLoop=1;jettySize=auto;html=1;exitX=0.5;exitY=1;exitDx=0;exitDy=0;entryX=0.5;entryY=0;entryDx=0;entryDy=0;" parent="1" source="Jq7RuhvPVXbI7fcz3Nos-205" target="Jq7RuhvPVXbI7fcz3Nos-210" edge="1">
          <mxGeometry relative="1" as="geometry" />
        </mxCell>
        <mxCell id="Jq7RuhvPVXbI7fcz3Nos-205" value="수량입력" style="rounded=1;whiteSpace=wrap;html=1;absoluteArcSize=1;arcSize=14;strokeWidth=2;" parent="1" vertex="1">
          <mxGeometry x="-6110" y="-3315" width="120" height="40" as="geometry" />
        </mxCell>
        <mxCell id="Jq7RuhvPVXbI7fcz3Nos-206" value="설문페이지" style="strokeWidth=2;html=1;shape=mxgraph.flowchart.terminator;whiteSpace=wrap;" parent="1" vertex="1">
          <mxGeometry x="-6110" y="-3645" width="120" height="40" as="geometry" />
        </mxCell>
        <mxCell id="Jq7RuhvPVXbI7fcz3Nos-207" value="설문페이지" style="strokeWidth=2;html=1;shape=mxgraph.flowchart.terminator;whiteSpace=wrap;" parent="1" vertex="1">
          <mxGeometry x="-6110" y="-3568.5" width="120" height="40" as="geometry" />
        </mxCell>
        <mxCell id="Jq7RuhvPVXbI7fcz3Nos-208" style="edgeStyle=orthogonalEdgeStyle;rounded=0;orthogonalLoop=1;jettySize=auto;html=1;exitX=1;exitY=0.5;exitDx=0;exitDy=0;exitPerimeter=0;entryX=0;entryY=0.5;entryDx=0;entryDy=0;entryPerimeter=0;" parent="1" source="Jq7RuhvPVXbI7fcz3Nos-179" target="Jq7RuhvPVXbI7fcz3Nos-207" edge="1">
          <mxGeometry relative="1" as="geometry" />
        </mxCell>
        <mxCell id="Jq7RuhvPVXbI7fcz3Nos-216" style="edgeStyle=orthogonalEdgeStyle;rounded=0;orthogonalLoop=1;jettySize=auto;html=1;exitX=0.5;exitY=1;exitDx=0;exitDy=0;" parent="1" source="Jq7RuhvPVXbI7fcz3Nos-210" edge="1">
          <mxGeometry relative="1" as="geometry">
            <mxPoint x="-6050.058823529412" y="-3155" as="targetPoint" />
          </mxGeometry>
        </mxCell>
        <mxCell id="Jq7RuhvPVXbI7fcz3Nos-210" value="수량 * 가격" style="rounded=1;whiteSpace=wrap;html=1;absoluteArcSize=1;arcSize=14;strokeWidth=2;" parent="1" vertex="1">
          <mxGeometry x="-6110" y="-3235" width="120" height="40" as="geometry" />
        </mxCell>
        <mxCell id="Jq7RuhvPVXbI7fcz3Nos-215" value="" style="edgeStyle=orthogonalEdgeStyle;rounded=0;orthogonalLoop=1;jettySize=auto;html=1;exitX=0.5;exitY=1;exitDx=0;exitDy=0;exitPerimeter=0;entryX=0;entryY=0.5;entryDx=0;entryDy=0;" parent="1" source="Jq7RuhvPVXbI7fcz3Nos-181" target="Jq7RuhvPVXbI7fcz3Nos-213" edge="1">
          <mxGeometry relative="1" as="geometry">
            <mxPoint x="-6450" y="-3595" as="sourcePoint" />
            <mxPoint x="-6110" y="-3310" as="targetPoint" />
            <Array as="points">
              <mxPoint x="-6450" y="-3453" />
            </Array>
          </mxGeometry>
        </mxCell>
        <mxCell id="Jq7RuhvPVXbI7fcz3Nos-213" value="" style="shape=message;html=1;outlineConnect=0;" parent="1" vertex="1">
          <mxGeometry x="-6459.995986434114" y="-3459.9957140329457" width="20" height="14" as="geometry" />
        </mxCell>
        <mxCell id="Jq7RuhvPVXbI7fcz3Nos-218" value="장바구니 담기" style="strokeWidth=2;html=1;shape=mxgraph.flowchart.terminator;whiteSpace=wrap;" parent="1" vertex="1">
          <mxGeometry x="-6110" y="-3155" width="120" height="40" as="geometry" />
        </mxCell>
        <mxCell id="Jq7RuhvPVXbI7fcz3Nos-220" value="DB shoppingcart" style="shape=cylinder3;whiteSpace=wrap;html=1;boundedLbl=1;backgroundOutline=1;size=15;" parent="1" vertex="1">
          <mxGeometry x="-5910" y="-3160" width="120" height="50" as="geometry" />
        </mxCell>
        <mxCell id="Jq7RuhvPVXbI7fcz3Nos-222" value="" style="endArrow=classic;html=1;rounded=0;" parent="1" edge="1">
          <mxGeometry relative="1" as="geometry">
            <mxPoint x="-5990" y="-3135.59" as="sourcePoint" />
            <mxPoint x="-5910" y="-3135.59" as="targetPoint" />
          </mxGeometry>
        </mxCell>
        <mxCell id="Jq7RuhvPVXbI7fcz3Nos-223" value="" style="shape=message;html=1;outlineConnect=0;" parent="Jq7RuhvPVXbI7fcz3Nos-222" vertex="1">
          <mxGeometry width="20" height="14" relative="1" as="geometry">
            <mxPoint x="-10" y="-7" as="offset" />
          </mxGeometry>
        </mxCell>
        <mxCell id="Jq7RuhvPVXbI7fcz3Nos-241" style="edgeStyle=orthogonalEdgeStyle;rounded=0;orthogonalLoop=1;jettySize=auto;html=1;exitX=0.5;exitY=1;exitDx=0;exitDy=0;entryX=0.5;entryY=0;entryDx=0;entryDy=0;" parent="1" source="Jq7RuhvPVXbI7fcz3Nos-224" target="Jq7RuhvPVXbI7fcz3Nos-226" edge="1">
          <mxGeometry relative="1" as="geometry" />
        </mxCell>
        <mxCell id="Jq7RuhvPVXbI7fcz3Nos-224" value="카테고리별 정렬" style="rounded=1;whiteSpace=wrap;html=1;absoluteArcSize=1;arcSize=14;strokeWidth=2;" parent="1" vertex="1">
          <mxGeometry x="-6240" y="-3510" width="120" height="40" as="geometry" />
        </mxCell>
        <mxCell id="Jq7RuhvPVXbI7fcz3Nos-225" style="edgeStyle=orthogonalEdgeStyle;rounded=0;orthogonalLoop=1;jettySize=auto;html=1;exitX=0.5;exitY=1;exitDx=0;exitDy=0;exitPerimeter=0;entryX=0.5;entryY=0;entryDx=0;entryDy=0;entryPerimeter=0;" parent="1" source="Jq7RuhvPVXbI7fcz3Nos-179" target="Jq7RuhvPVXbI7fcz3Nos-180" edge="1">
          <mxGeometry relative="1" as="geometry" />
        </mxCell>
        <mxCell id="Jq7RuhvPVXbI7fcz3Nos-242" style="edgeStyle=orthogonalEdgeStyle;rounded=0;orthogonalLoop=1;jettySize=auto;html=1;exitX=1;exitY=0.5;exitDx=0;exitDy=0;entryX=0;entryY=0.5;entryDx=0;entryDy=0;" parent="1" source="Jq7RuhvPVXbI7fcz3Nos-226" target="Jq7RuhvPVXbI7fcz3Nos-203" edge="1">
          <mxGeometry relative="1" as="geometry" />
        </mxCell>
        <mxCell id="Jq7RuhvPVXbI7fcz3Nos-226" value="상품선택" style="rounded=1;whiteSpace=wrap;html=1;absoluteArcSize=1;arcSize=14;strokeWidth=2;" parent="1" vertex="1">
          <mxGeometry x="-6330" y="-3395" width="120" height="40" as="geometry" />
        </mxCell>
        <mxCell id="Jq7RuhvPVXbI7fcz3Nos-236" value="" style="endArrow=classic;html=1;rounded=0;" parent="1" edge="1">
          <mxGeometry relative="1" as="geometry">
            <mxPoint x="-6300" y="-3490.59" as="sourcePoint" />
            <mxPoint x="-6240" y="-3490.59" as="targetPoint" />
          </mxGeometry>
        </mxCell>
        <mxCell id="Jq7RuhvPVXbI7fcz3Nos-237" value="YES" style="edgeLabel;resizable=0;html=1;align=center;verticalAlign=middle;" parent="Jq7RuhvPVXbI7fcz3Nos-236" connectable="0" vertex="1">
          <mxGeometry relative="1" as="geometry" />
        </mxCell>
        <mxCell id="Jq7RuhvPVXbI7fcz3Nos-244" value="" style="shape=message;html=1;outlineConnect=0;" parent="1" vertex="1">
          <mxGeometry x="-6369.995986434114" y="-3339.9957140329457" width="20" height="14" as="geometry" />
        </mxCell>
        <mxCell id="72Trmdz6FEPdabeAoyRc-12" style="edgeStyle=orthogonalEdgeStyle;rounded=0;orthogonalLoop=1;jettySize=auto;html=1;exitX=0.5;exitY=1;exitDx=0;exitDy=0;exitPerimeter=0;entryX=0.5;entryY=0;entryDx=0;entryDy=0;" edge="1" parent="1" source="72Trmdz6FEPdabeAoyRc-1" target="72Trmdz6FEPdabeAoyRc-8">
          <mxGeometry relative="1" as="geometry" />
        </mxCell>
        <mxCell id="72Trmdz6FEPdabeAoyRc-1" value="DB product" style="shape=cylinder3;whiteSpace=wrap;html=1;boundedLbl=1;backgroundOutline=1;size=15;" vertex="1" parent="1">
          <mxGeometry x="-6360" y="-2738" width="120" height="50" as="geometry" />
        </mxCell>
        <mxCell id="72Trmdz6FEPdabeAoyRc-2" value="상품등록페이지" style="strokeWidth=2;html=1;shape=mxgraph.flowchart.start_1;whiteSpace=wrap;" vertex="1" parent="1">
          <mxGeometry x="-6360" y="-2825" width="120" height="40" as="geometry" />
        </mxCell>
        <mxCell id="72Trmdz6FEPdabeAoyRc-17" style="edgeStyle=orthogonalEdgeStyle;rounded=0;orthogonalLoop=1;jettySize=auto;html=1;exitX=0.5;exitY=1;exitDx=0;exitDy=0;exitPerimeter=0;entryX=0.5;entryY=0;entryDx=0;entryDy=0;" edge="1" parent="1" target="72Trmdz6FEPdabeAoyRc-14">
          <mxGeometry relative="1" as="geometry">
            <mxPoint x="-6100" y="-2693" as="sourcePoint" />
          </mxGeometry>
        </mxCell>
        <mxCell id="72Trmdz6FEPdabeAoyRc-23" style="edgeStyle=orthogonalEdgeStyle;rounded=0;orthogonalLoop=1;jettySize=auto;html=1;exitX=0.5;exitY=1;exitDx=0;exitDy=0;entryX=0.5;entryY=0;entryDx=0;entryDy=0;" edge="1" parent="1" source="72Trmdz6FEPdabeAoyRc-8" target="72Trmdz6FEPdabeAoyRc-13">
          <mxGeometry relative="1" as="geometry" />
        </mxCell>
        <mxCell id="72Trmdz6FEPdabeAoyRc-8" value="상품데이터수정" style="rounded=1;whiteSpace=wrap;html=1;absoluteArcSize=1;arcSize=14;strokeWidth=2;" vertex="1" parent="1">
          <mxGeometry x="-6360" y="-2645" width="120" height="40" as="geometry" />
        </mxCell>
        <mxCell id="72Trmdz6FEPdabeAoyRc-9" style="edgeStyle=orthogonalEdgeStyle;rounded=0;orthogonalLoop=1;jettySize=auto;html=1;exitX=0.5;exitY=1;exitDx=0;exitDy=0;exitPerimeter=0;entryX=0.5;entryY=0;entryDx=0;entryDy=0;entryPerimeter=0;" edge="1" parent="1" source="72Trmdz6FEPdabeAoyRc-2" target="72Trmdz6FEPdabeAoyRc-1">
          <mxGeometry relative="1" as="geometry" />
        </mxCell>
        <mxCell id="72Trmdz6FEPdabeAoyRc-13" value="상품 재등록" style="rounded=1;whiteSpace=wrap;html=1;absoluteArcSize=1;arcSize=14;strokeWidth=2;" vertex="1" parent="1">
          <mxGeometry x="-6360" y="-2560" width="120" height="40" as="geometry" />
        </mxCell>
        <mxCell id="72Trmdz6FEPdabeAoyRc-14" value="상품 삭제 확인" style="rounded=1;whiteSpace=wrap;html=1;absoluteArcSize=1;arcSize=14;strokeWidth=2;" vertex="1" parent="1">
          <mxGeometry x="-6160" y="-2655" width="120" height="40" as="geometry" />
        </mxCell>
        <mxCell id="72Trmdz6FEPdabeAoyRc-15" value="상품삭제" style="strokeWidth=2;html=1;shape=mxgraph.flowchart.terminator;whiteSpace=wrap;" vertex="1" parent="1">
          <mxGeometry x="-6160" y="-2575" width="120" height="40" as="geometry" />
        </mxCell>
        <mxCell id="72Trmdz6FEPdabeAoyRc-18" style="edgeStyle=orthogonalEdgeStyle;rounded=0;orthogonalLoop=1;jettySize=auto;html=1;exitX=0.5;exitY=1;exitDx=0;exitDy=0;entryX=0.5;entryY=0;entryDx=0;entryDy=0;entryPerimeter=0;" edge="1" parent="1" source="72Trmdz6FEPdabeAoyRc-14" target="72Trmdz6FEPdabeAoyRc-15">
          <mxGeometry relative="1" as="geometry" />
        </mxCell>
        <mxCell id="72Trmdz6FEPdabeAoyRc-19" style="edgeStyle=orthogonalEdgeStyle;rounded=0;orthogonalLoop=1;jettySize=auto;html=1;exitX=0;exitY=0.5;exitDx=0;exitDy=0;exitPerimeter=0;entryX=1;entryY=1;entryDx=0;entryDy=-15;entryPerimeter=0;" edge="1" parent="1" source="72Trmdz6FEPdabeAoyRc-15" target="72Trmdz6FEPdabeAoyRc-1">
          <mxGeometry relative="1" as="geometry" />
        </mxCell>
        <mxCell id="72Trmdz6FEPdabeAoyRc-22" style="edgeStyle=orthogonalEdgeStyle;rounded=0;orthogonalLoop=1;jettySize=auto;html=1;exitX=1;exitY=0.5;exitDx=0;exitDy=0;exitPerimeter=0;entryX=0;entryY=0.5;entryDx=0;entryDy=0;entryPerimeter=0;" edge="1" parent="1" source="72Trmdz6FEPdabeAoyRc-1">
          <mxGeometry relative="1" as="geometry">
            <mxPoint x="-6160" y="-2713" as="targetPoint" />
          </mxGeometry>
        </mxCell>
        <mxCell id="72Trmdz6FEPdabeAoyRc-24" style="edgeStyle=orthogonalEdgeStyle;rounded=0;orthogonalLoop=1;jettySize=auto;html=1;exitX=0;exitY=0.5;exitDx=0;exitDy=0;entryX=0;entryY=0.5;entryDx=0;entryDy=0;entryPerimeter=0;" edge="1" parent="1" source="72Trmdz6FEPdabeAoyRc-13" target="72Trmdz6FEPdabeAoyRc-1">
          <mxGeometry relative="1" as="geometry">
            <Array as="points">
              <mxPoint x="-6410" y="-2540" />
              <mxPoint x="-6410" y="-2713" />
            </Array>
          </mxGeometry>
        </mxCell>
        <mxCell id="72Trmdz6FEPdabeAoyRc-26" style="edgeStyle=orthogonalEdgeStyle;rounded=0;orthogonalLoop=1;jettySize=auto;html=1;exitX=0.5;exitY=1;exitDx=0;exitDy=0;entryX=0.5;entryY=0;entryDx=0;entryDy=0;" edge="1" parent="1" source="72Trmdz6FEPdabeAoyRc-25" target="Jq7RuhvPVXbI7fcz3Nos-178">
          <mxGeometry relative="1" as="geometry" />
        </mxCell>
        <mxCell id="72Trmdz6FEPdabeAoyRc-25" value="관리자페이지" style="rounded=1;whiteSpace=wrap;html=1;absoluteArcSize=1;arcSize=14;strokeWidth=2;" vertex="1" parent="1">
          <mxGeometry x="-6360" y="-2995" width="120" height="40" as="geometry" />
        </mxCell>
        <mxCell id="72Trmdz6FEPdabeAoyRc-27" value="상품 삭제" style="rounded=1;whiteSpace=wrap;html=1;absoluteArcSize=1;arcSize=14;strokeWidth=2;" vertex="1" parent="1">
          <mxGeometry x="-6160" y="-2733" width="120" height="40" as="geometry" />
        </mxCell>
        <mxCell id="72Trmdz6FEPdabeAoyRc-28" value="상품페이지" style="strokeWidth=2;html=1;shape=mxgraph.flowchart.terminator;whiteSpace=wrap;" vertex="1" parent="1">
          <mxGeometry x="-4980" y="-4470" width="120" height="40" as="geometry" />
        </mxCell>
      </root>
    </mxGraphModel>
  </diagram>
</mxfile>
